<?xml version="1.0" encoding="utf-8"?>
<svg xmlns="http://www.w3.org/2000/svg" xmlns:xlink="http://www.w3.org/1999/xlink" width="600" height="400" viewBox="0 0 2400 1600">
<defs>
  <clipPath id="clip240">
    <rect x="0" y="0" width="2400" height="1600"/>
  </clipPath>
</defs>
<path clip-path="url(#clip240)" d="M0 1600 L2400 1600 L2400 0 L0 0  Z" fill="#ffffff" fill-rule="evenodd" fill-opacity="1"/>
<defs>
  <clipPath id="clip241">
    <rect x="480" y="0" width="1681" height="1600"/>
  </clipPath>
</defs>
<path clip-path="url(#clip240)" d="M219.866 1423.18 L2352.76 1423.18 L2352.76 47.2441 L219.866 47.2441  Z" fill="#ffffff" fill-rule="evenodd" fill-opacity="1"/>
<defs>
  <clipPath id="clip242">
    <rect x="219" y="47" width="2134" height="1377"/>
  </clipPath>
</defs>
<polyline clip-path="url(#clip242)" style="stroke:#000000; stroke-linecap:round; stroke-linejoin:round; stroke-width:2; stroke-opacity:0.1; fill:none" points="408.86,1423.18 408.86,47.2441 "/>
<polyline clip-path="url(#clip242)" style="stroke:#000000; stroke-linecap:round; stroke-linejoin:round; stroke-width:2; stroke-opacity:0.1; fill:none" points="842.314,1423.18 842.314,47.2441 "/>
<polyline clip-path="url(#clip242)" style="stroke:#000000; stroke-linecap:round; stroke-linejoin:round; stroke-width:2; stroke-opacity:0.1; fill:none" points="1275.77,1423.18 1275.77,47.2441 "/>
<polyline clip-path="url(#clip242)" style="stroke:#000000; stroke-linecap:round; stroke-linejoin:round; stroke-width:2; stroke-opacity:0.1; fill:none" points="1709.22,1423.18 1709.22,47.2441 "/>
<polyline clip-path="url(#clip242)" style="stroke:#000000; stroke-linecap:round; stroke-linejoin:round; stroke-width:2; stroke-opacity:0.1; fill:none" points="2142.68,1423.18 2142.68,47.2441 "/>
<polyline clip-path="url(#clip242)" style="stroke:#000000; stroke-linecap:round; stroke-linejoin:round; stroke-width:2; stroke-opacity:0.1; fill:none" points="219.866,1384.24 2352.76,1384.24 "/>
<polyline clip-path="url(#clip242)" style="stroke:#000000; stroke-linecap:round; stroke-linejoin:round; stroke-width:2; stroke-opacity:0.1; fill:none" points="219.866,1074.76 2352.76,1074.76 "/>
<polyline clip-path="url(#clip242)" style="stroke:#000000; stroke-linecap:round; stroke-linejoin:round; stroke-width:2; stroke-opacity:0.1; fill:none" points="219.866,765.281 2352.76,765.281 "/>
<polyline clip-path="url(#clip242)" style="stroke:#000000; stroke-linecap:round; stroke-linejoin:round; stroke-width:2; stroke-opacity:0.1; fill:none" points="219.866,455.803 2352.76,455.803 "/>
<polyline clip-path="url(#clip242)" style="stroke:#000000; stroke-linecap:round; stroke-linejoin:round; stroke-width:2; stroke-opacity:0.1; fill:none" points="219.866,146.324 2352.76,146.324 "/>
<polyline clip-path="url(#clip240)" style="stroke:#000000; stroke-linecap:round; stroke-linejoin:round; stroke-width:4; stroke-opacity:1; fill:none" points="219.866,1423.18 2352.76,1423.18 "/>
<polyline clip-path="url(#clip240)" style="stroke:#000000; stroke-linecap:round; stroke-linejoin:round; stroke-width:4; stroke-opacity:1; fill:none" points="408.86,1423.18 408.86,1404.28 "/>
<polyline clip-path="url(#clip240)" style="stroke:#000000; stroke-linecap:round; stroke-linejoin:round; stroke-width:4; stroke-opacity:1; fill:none" points="842.314,1423.18 842.314,1404.28 "/>
<polyline clip-path="url(#clip240)" style="stroke:#000000; stroke-linecap:round; stroke-linejoin:round; stroke-width:4; stroke-opacity:1; fill:none" points="1275.77,1423.18 1275.77,1404.28 "/>
<polyline clip-path="url(#clip240)" style="stroke:#000000; stroke-linecap:round; stroke-linejoin:round; stroke-width:4; stroke-opacity:1; fill:none" points="1709.22,1423.18 1709.22,1404.28 "/>
<polyline clip-path="url(#clip240)" style="stroke:#000000; stroke-linecap:round; stroke-linejoin:round; stroke-width:4; stroke-opacity:1; fill:none" points="2142.68,1423.18 2142.68,1404.28 "/>
<path clip-path="url(#clip240)" d="M377.761 1468.75 L407.436 1468.75 L407.436 1472.69 L377.761 1472.69 L377.761 1468.75 Z" fill="#000000" fill-rule="nonzero" fill-opacity="1" /><path clip-path="url(#clip240)" d="M430.376 1455.09 L418.57 1473.54 L430.376 1473.54 L430.376 1455.09 M429.149 1451.02 L435.029 1451.02 L435.029 1473.54 L439.959 1473.54 L439.959 1477.43 L435.029 1477.43 L435.029 1485.58 L430.376 1485.58 L430.376 1477.43 L414.774 1477.43 L414.774 1472.92 L429.149 1451.02 Z" fill="#000000" fill-rule="nonzero" fill-opacity="1" /><path clip-path="url(#clip240)" d="M812.256 1468.75 L841.932 1468.75 L841.932 1472.69 L812.256 1472.69 L812.256 1468.75 Z" fill="#000000" fill-rule="nonzero" fill-opacity="1" /><path clip-path="url(#clip240)" d="M856.053 1481.64 L872.372 1481.64 L872.372 1485.58 L850.428 1485.58 L850.428 1481.64 Q853.09 1478.89 857.673 1474.26 Q862.279 1469.61 863.46 1468.27 Q865.705 1465.74 866.585 1464.01 Q867.488 1462.25 867.488 1460.56 Q867.488 1457.8 865.543 1456.07 Q863.622 1454.33 860.52 1454.33 Q858.321 1454.33 855.867 1455.09 Q853.437 1455.86 850.659 1457.41 L850.659 1452.69 Q853.483 1451.55 855.937 1450.97 Q858.39 1450.39 860.427 1450.39 Q865.798 1450.39 868.992 1453.08 Q872.187 1455.77 872.187 1460.26 Q872.187 1462.39 871.377 1464.31 Q870.589 1466.2 868.483 1468.8 Q867.904 1469.47 864.802 1472.69 Q861.701 1475.88 856.053 1481.64 Z" fill="#000000" fill-rule="nonzero" fill-opacity="1" /><path clip-path="url(#clip240)" d="M1275.77 1454.1 Q1272.16 1454.1 1270.33 1457.66 Q1268.52 1461.2 1268.52 1468.33 Q1268.52 1475.44 1270.33 1479.01 Q1272.16 1482.55 1275.77 1482.55 Q1279.4 1482.55 1281.21 1479.01 Q1283.04 1475.44 1283.04 1468.33 Q1283.04 1461.2 1281.21 1457.66 Q1279.4 1454.1 1275.77 1454.1 M1275.77 1450.39 Q1281.58 1450.39 1284.63 1455 Q1287.71 1459.58 1287.71 1468.33 Q1287.71 1477.06 1284.63 1481.67 Q1281.58 1486.25 1275.77 1486.25 Q1269.96 1486.25 1266.88 1481.67 Q1263.82 1477.06 1263.82 1468.33 Q1263.82 1459.58 1266.88 1455 Q1269.96 1450.39 1275.77 1450.39 Z" fill="#000000" fill-rule="nonzero" fill-opacity="1" /><path clip-path="url(#clip240)" d="M1703.88 1481.64 L1720.19 1481.64 L1720.19 1485.58 L1698.25 1485.58 L1698.25 1481.64 Q1700.91 1478.89 1705.5 1474.26 Q1710.1 1469.61 1711.28 1468.27 Q1713.53 1465.74 1714.41 1464.01 Q1715.31 1462.25 1715.31 1460.56 Q1715.31 1457.8 1713.37 1456.07 Q1711.44 1454.33 1708.34 1454.33 Q1706.14 1454.33 1703.69 1455.09 Q1701.26 1455.86 1698.48 1457.41 L1698.48 1452.69 Q1701.31 1451.55 1703.76 1450.97 Q1706.21 1450.39 1708.25 1450.39 Q1713.62 1450.39 1716.82 1453.08 Q1720.01 1455.77 1720.01 1460.26 Q1720.01 1462.39 1719.2 1464.31 Q1718.41 1466.2 1716.31 1468.8 Q1715.73 1469.47 1712.63 1472.69 Q1709.52 1475.88 1703.88 1481.64 Z" fill="#000000" fill-rule="nonzero" fill-opacity="1" /><path clip-path="url(#clip240)" d="M2145.69 1455.09 L2133.88 1473.54 L2145.69 1473.54 L2145.69 1455.09 M2144.46 1451.02 L2150.34 1451.02 L2150.34 1473.54 L2155.27 1473.54 L2155.27 1477.43 L2150.34 1477.43 L2150.34 1485.58 L2145.69 1485.58 L2145.69 1477.43 L2130.08 1477.43 L2130.08 1472.92 L2144.46 1451.02 Z" fill="#000000" fill-rule="nonzero" fill-opacity="1" /><path clip-path="url(#clip240)" d="M1036.52 1545.76 Q1038.59 1546.46 1040.53 1548.76 Q1042.5 1551.05 1044.48 1555.06 L1051 1568.04 L1044.1 1568.04 L1038.02 1555.85 Q1035.66 1551.08 1033.43 1549.52 Q1031.24 1547.96 1027.42 1547.96 L1020.42 1547.96 L1020.42 1568.04 L1013.99 1568.04 L1013.99 1520.52 L1028.5 1520.52 Q1036.65 1520.52 1040.66 1523.93 Q1044.67 1527.34 1044.67 1534.21 Q1044.67 1538.7 1042.57 1541.66 Q1040.5 1544.62 1036.52 1545.76 M1020.42 1525.81 L1020.42 1542.68 L1028.5 1542.68 Q1033.15 1542.68 1035.5 1540.54 Q1037.89 1538.38 1037.89 1534.21 Q1037.89 1530.04 1035.5 1527.94 Q1033.15 1525.81 1028.5 1525.81 L1020.42 1525.81 Z" fill="#000000" fill-rule="nonzero" fill-opacity="1" /><path clip-path="url(#clip240)" d="M1073.79 1550.12 Q1066.69 1550.12 1063.96 1551.75 Q1061.22 1553.37 1061.22 1557.29 Q1061.22 1560.4 1063.26 1562.25 Q1065.33 1564.07 1068.86 1564.07 Q1073.73 1564.07 1076.66 1560.63 Q1079.62 1557.16 1079.62 1551.43 L1079.62 1550.12 L1073.79 1550.12 M1085.47 1547.71 L1085.47 1568.04 L1079.62 1568.04 L1079.62 1562.63 Q1077.61 1565.88 1074.62 1567.44 Q1071.63 1568.97 1067.3 1568.97 Q1061.82 1568.97 1058.58 1565.91 Q1055.36 1562.82 1055.36 1557.67 Q1055.36 1551.65 1059.37 1548.6 Q1063.42 1545.54 1071.4 1545.54 L1079.62 1545.54 L1079.62 1544.97 Q1079.62 1540.93 1076.94 1538.73 Q1074.3 1536.5 1069.5 1536.5 Q1066.44 1536.5 1063.54 1537.23 Q1060.65 1537.97 1057.97 1539.43 L1057.97 1534.02 Q1061.19 1532.78 1064.21 1532.17 Q1067.24 1531.54 1070.1 1531.54 Q1077.83 1531.54 1081.65 1535.55 Q1085.47 1539.56 1085.47 1547.71 Z" fill="#000000" fill-rule="nonzero" fill-opacity="1" /><path clip-path="url(#clip240)" d="M1127.17 1546.53 L1127.17 1568.04 L1121.31 1568.04 L1121.31 1546.72 Q1121.31 1541.66 1119.34 1539.14 Q1117.37 1536.63 1113.42 1536.63 Q1108.68 1536.63 1105.94 1539.65 Q1103.2 1542.68 1103.2 1547.9 L1103.2 1568.04 L1097.31 1568.04 L1097.31 1532.4 L1103.2 1532.4 L1103.2 1537.93 Q1105.3 1534.72 1108.13 1533.13 Q1111 1531.54 1114.72 1531.54 Q1120.87 1531.54 1124.02 1535.36 Q1127.17 1539.14 1127.17 1546.53 Z" fill="#000000" fill-rule="nonzero" fill-opacity="1" /><path clip-path="url(#clip240)" d="M1162.31 1537.81 L1162.31 1518.52 L1168.16 1518.52 L1168.16 1568.04 L1162.31 1568.04 L1162.31 1562.7 Q1160.46 1565.88 1157.63 1567.44 Q1154.83 1568.97 1150.88 1568.97 Q1144.42 1568.97 1140.35 1563.81 Q1136.3 1558.65 1136.3 1550.25 Q1136.3 1541.85 1140.35 1536.69 Q1144.42 1531.54 1150.88 1531.54 Q1154.83 1531.54 1157.63 1533.1 Q1160.46 1534.62 1162.31 1537.81 M1142.35 1550.25 Q1142.35 1556.71 1144.99 1560.4 Q1147.67 1564.07 1152.31 1564.07 Q1156.96 1564.07 1159.63 1560.4 Q1162.31 1556.71 1162.31 1550.25 Q1162.31 1543.79 1159.63 1540.13 Q1156.96 1536.44 1152.31 1536.44 Q1147.67 1536.44 1144.99 1540.13 Q1142.35 1543.79 1142.35 1550.25 Z" fill="#000000" fill-rule="nonzero" fill-opacity="1" /><path clip-path="url(#clip240)" d="M1194.04 1536.5 Q1189.33 1536.5 1186.59 1540.19 Q1183.86 1543.85 1183.86 1550.25 Q1183.86 1556.65 1186.56 1560.34 Q1189.3 1564 1194.04 1564 Q1198.72 1564 1201.46 1560.31 Q1204.19 1556.62 1204.19 1550.25 Q1204.19 1543.92 1201.46 1540.23 Q1198.72 1536.5 1194.04 1536.5 M1194.04 1531.54 Q1201.68 1531.54 1206.04 1536.5 Q1210.4 1541.47 1210.4 1550.25 Q1210.4 1559 1206.04 1564 Q1201.68 1568.97 1194.04 1568.97 Q1186.37 1568.97 1182.01 1564 Q1177.68 1559 1177.68 1550.25 Q1177.68 1541.47 1182.01 1536.5 Q1186.37 1531.54 1194.04 1531.54 Z" fill="#000000" fill-rule="nonzero" fill-opacity="1" /><path clip-path="url(#clip240)" d="M1247.86 1539.24 Q1250.06 1535.29 1253.11 1533.41 Q1256.17 1531.54 1260.31 1531.54 Q1265.88 1531.54 1268.9 1535.45 Q1271.92 1539.33 1271.92 1546.53 L1271.92 1568.04 L1266.04 1568.04 L1266.04 1546.72 Q1266.04 1541.59 1264.22 1539.11 Q1262.41 1536.63 1258.68 1536.63 Q1254.13 1536.63 1251.49 1539.65 Q1248.85 1542.68 1248.85 1547.9 L1248.85 1568.04 L1242.96 1568.04 L1242.96 1546.72 Q1242.96 1541.56 1241.15 1539.11 Q1239.33 1536.63 1235.54 1536.63 Q1231.06 1536.63 1228.41 1539.68 Q1225.77 1542.71 1225.77 1547.9 L1225.77 1568.04 L1219.88 1568.04 L1219.88 1532.4 L1225.77 1532.4 L1225.77 1537.93 Q1227.78 1534.66 1230.58 1533.1 Q1233.38 1531.54 1237.23 1531.54 Q1241.11 1531.54 1243.82 1533.51 Q1246.56 1535.48 1247.86 1539.24 Z" fill="#000000" fill-rule="nonzero" fill-opacity="1" /><path clip-path="url(#clip240)" d="M1316.83 1568.04 L1298.69 1520.52 L1305.41 1520.52 L1320.46 1560.53 L1335.55 1520.52 L1342.23 1520.52 L1324.12 1568.04 L1316.83 1568.04 Z" fill="#000000" fill-rule="nonzero" fill-opacity="1" /><path clip-path="url(#clip240)" d="M1360.06 1550.12 Q1352.96 1550.12 1350.22 1551.75 Q1347.49 1553.37 1347.49 1557.29 Q1347.49 1560.4 1349.52 1562.25 Q1351.59 1564.07 1355.12 1564.07 Q1359.99 1564.07 1362.92 1560.63 Q1365.88 1557.16 1365.88 1551.43 L1365.88 1550.12 L1360.06 1550.12 M1371.74 1547.71 L1371.74 1568.04 L1365.88 1568.04 L1365.88 1562.63 Q1363.88 1565.88 1360.89 1567.44 Q1357.89 1568.97 1353.56 1568.97 Q1348.09 1568.97 1344.84 1565.91 Q1341.63 1562.82 1341.63 1557.67 Q1341.63 1551.65 1345.64 1548.6 Q1349.68 1545.54 1357.67 1545.54 L1365.88 1545.54 L1365.88 1544.97 Q1365.88 1540.93 1363.21 1538.73 Q1360.57 1536.5 1355.76 1536.5 Q1352.71 1536.5 1349.81 1537.23 Q1346.91 1537.97 1344.24 1539.43 L1344.24 1534.02 Q1347.45 1532.78 1350.48 1532.17 Q1353.5 1531.54 1356.37 1531.54 Q1364.1 1531.54 1367.92 1535.55 Q1371.74 1539.56 1371.74 1547.71 Z" fill="#000000" fill-rule="nonzero" fill-opacity="1" /><path clip-path="url(#clip240)" d="M1404.46 1537.87 Q1403.47 1537.3 1402.29 1537.04 Q1401.15 1536.76 1399.75 1536.76 Q1394.78 1536.76 1392.11 1540 Q1389.47 1543.22 1389.47 1549.27 L1389.47 1568.04 L1383.58 1568.04 L1383.58 1532.4 L1389.47 1532.4 L1389.47 1537.93 Q1391.31 1534.69 1394.27 1533.13 Q1397.23 1531.54 1401.47 1531.54 Q1402.07 1531.54 1402.8 1531.63 Q1403.54 1531.7 1404.43 1531.85 L1404.46 1537.87 Z" fill="#000000" fill-rule="nonzero" fill-opacity="1" /><path clip-path="url(#clip240)" d="M1410.6 1532.4 L1416.46 1532.4 L1416.46 1568.04 L1410.6 1568.04 L1410.6 1532.4 M1410.6 1518.52 L1416.46 1518.52 L1416.46 1525.93 L1410.6 1525.93 L1410.6 1518.52 Z" fill="#000000" fill-rule="nonzero" fill-opacity="1" /><path clip-path="url(#clip240)" d="M1444.91 1550.12 Q1437.81 1550.12 1435.08 1551.75 Q1432.34 1553.37 1432.34 1557.29 Q1432.34 1560.4 1434.38 1562.25 Q1436.45 1564.07 1439.98 1564.07 Q1444.85 1564.07 1447.78 1560.63 Q1450.74 1557.16 1450.74 1551.43 L1450.74 1550.12 L1444.91 1550.12 M1456.59 1547.71 L1456.59 1568.04 L1450.74 1568.04 L1450.74 1562.63 Q1448.73 1565.88 1445.74 1567.44 Q1442.75 1568.97 1438.42 1568.97 Q1432.95 1568.97 1429.7 1565.91 Q1426.48 1562.82 1426.48 1557.67 Q1426.48 1551.65 1430.49 1548.6 Q1434.54 1545.54 1442.53 1545.54 L1450.74 1545.54 L1450.74 1544.97 Q1450.74 1540.93 1448.06 1538.73 Q1445.42 1536.5 1440.62 1536.5 Q1437.56 1536.5 1434.66 1537.23 Q1431.77 1537.97 1429.09 1539.43 L1429.09 1534.02 Q1432.31 1532.78 1435.33 1532.17 Q1438.36 1531.54 1441.22 1531.54 Q1448.95 1531.54 1452.77 1535.55 Q1456.59 1539.56 1456.59 1547.71 Z" fill="#000000" fill-rule="nonzero" fill-opacity="1" /><path clip-path="url(#clip240)" d="M1494.25 1550.25 Q1494.25 1543.79 1491.57 1540.13 Q1488.93 1536.44 1484.28 1536.44 Q1479.64 1536.44 1476.96 1540.13 Q1474.32 1543.79 1474.32 1550.25 Q1474.32 1556.71 1476.96 1560.4 Q1479.64 1564.07 1484.28 1564.07 Q1488.93 1564.07 1491.57 1560.4 Q1494.25 1556.71 1494.25 1550.25 M1474.32 1537.81 Q1476.17 1534.62 1478.97 1533.1 Q1481.8 1531.54 1485.72 1531.54 Q1492.21 1531.54 1496.25 1536.69 Q1500.33 1541.85 1500.33 1550.25 Q1500.33 1558.65 1496.25 1563.81 Q1492.21 1568.97 1485.72 1568.97 Q1481.8 1568.97 1478.97 1567.44 Q1476.17 1565.88 1474.32 1562.7 L1474.32 1568.04 L1468.43 1568.04 L1468.43 1518.52 L1474.32 1518.52 L1474.32 1537.81 Z" fill="#000000" fill-rule="nonzero" fill-opacity="1" /><path clip-path="url(#clip240)" d="M1510.03 1518.52 L1515.89 1518.52 L1515.89 1568.04 L1510.03 1568.04 L1510.03 1518.52 Z" fill="#000000" fill-rule="nonzero" fill-opacity="1" /><path clip-path="url(#clip240)" d="M1558.64 1548.76 L1558.64 1551.62 L1531.71 1551.62 Q1532.09 1557.67 1535.34 1560.85 Q1538.62 1564 1544.44 1564 Q1547.81 1564 1550.97 1563.17 Q1554.15 1562.35 1557.27 1560.69 L1557.27 1566.23 Q1554.12 1567.57 1550.81 1568.27 Q1547.5 1568.97 1544.09 1568.97 Q1535.56 1568.97 1530.56 1564 Q1525.6 1559.04 1525.6 1550.57 Q1525.6 1541.82 1530.31 1536.69 Q1535.05 1531.54 1543.07 1531.54 Q1550.27 1531.54 1554.43 1536.18 Q1558.64 1540.8 1558.64 1548.76 M1552.78 1547.04 Q1552.72 1542.23 1550.07 1539.37 Q1547.46 1536.5 1543.14 1536.5 Q1538.23 1536.5 1535.27 1539.27 Q1532.35 1542.04 1531.9 1547.07 L1552.78 1547.04 Z" fill="#000000" fill-rule="nonzero" fill-opacity="1" /><polyline clip-path="url(#clip240)" style="stroke:#000000; stroke-linecap:round; stroke-linejoin:round; stroke-width:4; stroke-opacity:1; fill:none" points="219.866,1423.18 219.866,47.2441 "/>
<polyline clip-path="url(#clip240)" style="stroke:#000000; stroke-linecap:round; stroke-linejoin:round; stroke-width:4; stroke-opacity:1; fill:none" points="219.866,1384.24 238.764,1384.24 "/>
<polyline clip-path="url(#clip240)" style="stroke:#000000; stroke-linecap:round; stroke-linejoin:round; stroke-width:4; stroke-opacity:1; fill:none" points="219.866,1074.76 238.764,1074.76 "/>
<polyline clip-path="url(#clip240)" style="stroke:#000000; stroke-linecap:round; stroke-linejoin:round; stroke-width:4; stroke-opacity:1; fill:none" points="219.866,765.281 238.764,765.281 "/>
<polyline clip-path="url(#clip240)" style="stroke:#000000; stroke-linecap:round; stroke-linejoin:round; stroke-width:4; stroke-opacity:1; fill:none" points="219.866,455.803 238.764,455.803 "/>
<polyline clip-path="url(#clip240)" style="stroke:#000000; stroke-linecap:round; stroke-linejoin:round; stroke-width:4; stroke-opacity:1; fill:none" points="219.866,146.324 238.764,146.324 "/>
<path clip-path="url(#clip240)" d="M126.691 1370.04 Q123.08 1370.04 121.251 1373.6 Q119.445 1377.14 119.445 1384.27 Q119.445 1391.38 121.251 1394.94 Q123.08 1398.49 126.691 1398.49 Q130.325 1398.49 132.13 1394.94 Q133.959 1391.38 133.959 1384.27 Q133.959 1377.14 132.13 1373.6 Q130.325 1370.04 126.691 1370.04 M126.691 1366.33 Q132.501 1366.33 135.556 1370.94 Q138.635 1375.52 138.635 1384.27 Q138.635 1393 135.556 1397.61 Q132.501 1402.19 126.691 1402.19 Q120.88 1402.19 117.802 1397.61 Q114.746 1393 114.746 1384.27 Q114.746 1375.52 117.802 1370.94 Q120.88 1366.33 126.691 1366.33 Z" fill="#000000" fill-rule="nonzero" fill-opacity="1" /><path clip-path="url(#clip240)" d="M146.853 1395.64 L151.737 1395.64 L151.737 1401.52 L146.853 1401.52 L146.853 1395.64 Z" fill="#000000" fill-rule="nonzero" fill-opacity="1" /><path clip-path="url(#clip240)" d="M171.922 1370.04 Q168.311 1370.04 166.482 1373.6 Q164.677 1377.14 164.677 1384.27 Q164.677 1391.38 166.482 1394.94 Q168.311 1398.49 171.922 1398.49 Q175.556 1398.49 177.362 1394.94 Q179.19 1391.38 179.19 1384.27 Q179.19 1377.14 177.362 1373.6 Q175.556 1370.04 171.922 1370.04 M171.922 1366.33 Q177.732 1366.33 180.788 1370.94 Q183.866 1375.52 183.866 1384.27 Q183.866 1393 180.788 1397.61 Q177.732 1402.19 171.922 1402.19 Q166.112 1402.19 163.033 1397.61 Q159.978 1393 159.978 1384.27 Q159.978 1375.52 163.033 1370.94 Q166.112 1366.33 171.922 1366.33 Z" fill="#000000" fill-rule="nonzero" fill-opacity="1" /><path clip-path="url(#clip240)" d="M127.917 1060.56 Q124.306 1060.56 122.478 1064.12 Q120.672 1067.67 120.672 1074.79 Q120.672 1081.9 122.478 1085.47 Q124.306 1089.01 127.917 1089.01 Q131.552 1089.01 133.357 1085.47 Q135.186 1081.9 135.186 1074.79 Q135.186 1067.67 133.357 1064.12 Q131.552 1060.56 127.917 1060.56 M127.917 1056.86 Q133.728 1056.86 136.783 1061.46 Q139.862 1066.04 139.862 1074.79 Q139.862 1083.52 136.783 1088.13 Q133.728 1092.71 127.917 1092.71 Q122.107 1092.71 119.029 1088.13 Q115.973 1083.52 115.973 1074.79 Q115.973 1066.04 119.029 1061.46 Q122.107 1056.86 127.917 1056.86 Z" fill="#000000" fill-rule="nonzero" fill-opacity="1" /><path clip-path="url(#clip240)" d="M148.079 1086.16 L152.964 1086.16 L152.964 1092.04 L148.079 1092.04 L148.079 1086.16 Z" fill="#000000" fill-rule="nonzero" fill-opacity="1" /><path clip-path="url(#clip240)" d="M163.959 1088.1 L171.598 1088.1 L171.598 1061.74 L163.288 1063.41 L163.288 1059.15 L171.552 1057.48 L176.227 1057.48 L176.227 1088.1 L183.866 1088.1 L183.866 1092.04 L163.959 1092.04 L163.959 1088.1 Z" fill="#000000" fill-rule="nonzero" fill-opacity="1" /><path clip-path="url(#clip240)" d="M128.288 751.08 Q124.677 751.08 122.848 754.645 Q121.043 758.187 121.043 765.316 Q121.043 772.423 122.848 775.987 Q124.677 779.529 128.288 779.529 Q131.922 779.529 133.728 775.987 Q135.556 772.423 135.556 765.316 Q135.556 758.187 133.728 754.645 Q131.922 751.08 128.288 751.08 M128.288 747.376 Q134.098 747.376 137.154 751.983 Q140.232 756.566 140.232 765.316 Q140.232 774.043 137.154 778.649 Q134.098 783.233 128.288 783.233 Q122.478 783.233 119.399 778.649 Q116.343 774.043 116.343 765.316 Q116.343 756.566 119.399 751.983 Q122.478 747.376 128.288 747.376 Z" fill="#000000" fill-rule="nonzero" fill-opacity="1" /><path clip-path="url(#clip240)" d="M148.45 776.682 L153.334 776.682 L153.334 782.561 L148.45 782.561 L148.45 776.682 Z" fill="#000000" fill-rule="nonzero" fill-opacity="1" /><path clip-path="url(#clip240)" d="M167.547 778.626 L183.866 778.626 L183.866 782.561 L161.922 782.561 L161.922 778.626 Q164.584 775.872 169.167 771.242 Q173.774 766.589 174.954 765.247 Q177.2 762.724 178.079 760.987 Q178.982 759.228 178.982 757.538 Q178.982 754.784 177.038 753.048 Q175.116 751.312 172.014 751.312 Q169.815 751.312 167.362 752.075 Q164.931 752.839 162.153 754.39 L162.153 749.668 Q164.977 748.534 167.431 747.955 Q169.885 747.376 171.922 747.376 Q177.292 747.376 180.487 750.062 Q183.681 752.747 183.681 757.237 Q183.681 759.367 182.871 761.288 Q182.084 763.187 179.977 765.779 Q179.399 766.45 176.297 769.668 Q173.195 772.862 167.547 778.626 Z" fill="#000000" fill-rule="nonzero" fill-opacity="1" /><path clip-path="url(#clip240)" d="M127.339 441.602 Q123.728 441.602 121.899 445.166 Q120.093 448.708 120.093 455.838 Q120.093 462.944 121.899 466.509 Q123.728 470.05 127.339 470.05 Q130.973 470.05 132.779 466.509 Q134.607 462.944 134.607 455.838 Q134.607 448.708 132.779 445.166 Q130.973 441.602 127.339 441.602 M127.339 437.898 Q133.149 437.898 136.204 442.504 Q139.283 447.088 139.283 455.838 Q139.283 464.564 136.204 469.171 Q133.149 473.754 127.339 473.754 Q121.529 473.754 118.45 469.171 Q115.394 464.564 115.394 455.838 Q115.394 447.088 118.45 442.504 Q121.529 437.898 127.339 437.898 Z" fill="#000000" fill-rule="nonzero" fill-opacity="1" /><path clip-path="url(#clip240)" d="M147.501 467.203 L152.385 467.203 L152.385 473.083 L147.501 473.083 L147.501 467.203 Z" fill="#000000" fill-rule="nonzero" fill-opacity="1" /><path clip-path="url(#clip240)" d="M176.737 454.449 Q180.093 455.166 181.968 457.435 Q183.866 459.703 183.866 463.037 Q183.866 468.152 180.348 470.953 Q176.829 473.754 170.348 473.754 Q168.172 473.754 165.857 473.314 Q163.565 472.898 161.112 472.041 L161.112 467.527 Q163.056 468.662 165.371 469.24 Q167.686 469.819 170.209 469.819 Q174.607 469.819 176.899 468.083 Q179.214 466.347 179.214 463.037 Q179.214 459.981 177.061 458.268 Q174.931 456.532 171.112 456.532 L167.084 456.532 L167.084 452.689 L171.297 452.689 Q174.746 452.689 176.575 451.324 Q178.403 449.935 178.403 447.342 Q178.403 444.68 176.505 443.268 Q174.63 441.833 171.112 441.833 Q169.19 441.833 166.991 442.25 Q164.792 442.666 162.153 443.546 L162.153 439.379 Q164.815 438.639 167.13 438.268 Q169.468 437.898 171.528 437.898 Q176.852 437.898 179.954 440.328 Q183.056 442.736 183.056 446.856 Q183.056 449.726 181.413 451.717 Q179.769 453.685 176.737 454.449 Z" fill="#000000" fill-rule="nonzero" fill-opacity="1" /><path clip-path="url(#clip240)" d="M126.205 132.123 Q122.593 132.123 120.765 135.688 Q118.959 139.229 118.959 146.359 Q118.959 153.465 120.765 157.03 Q122.593 160.572 126.205 160.572 Q129.839 160.572 131.644 157.03 Q133.473 153.465 133.473 146.359 Q133.473 139.229 131.644 135.688 Q129.839 132.123 126.205 132.123 M126.205 128.419 Q132.015 128.419 135.07 133.026 Q138.149 137.609 138.149 146.359 Q138.149 155.086 135.07 159.692 Q132.015 164.276 126.205 164.276 Q120.394 164.276 117.316 159.692 Q114.26 155.086 114.26 146.359 Q114.26 137.609 117.316 133.026 Q120.394 128.419 126.205 128.419 Z" fill="#000000" fill-rule="nonzero" fill-opacity="1" /><path clip-path="url(#clip240)" d="M146.366 157.725 L151.251 157.725 L151.251 163.604 L146.366 163.604 L146.366 157.725 Z" fill="#000000" fill-rule="nonzero" fill-opacity="1" /><path clip-path="url(#clip240)" d="M174.283 133.118 L162.477 151.567 L174.283 151.567 L174.283 133.118 M173.056 129.044 L178.936 129.044 L178.936 151.567 L183.866 151.567 L183.866 155.456 L178.936 155.456 L178.936 163.604 L174.283 163.604 L174.283 155.456 L158.681 155.456 L158.681 150.942 L173.056 129.044 Z" fill="#000000" fill-rule="nonzero" fill-opacity="1" /><path clip-path="url(#clip240)" d="M21.7677 848.522 L58.7206 848.522 L58.7206 840.755 Q58.7206 830.92 54.2646 826.369 Q49.8086 821.786 40.1964 821.786 Q30.6479 821.786 26.2237 826.369 Q21.7677 830.92 21.7677 840.755 L21.7677 848.522 M16.4842 854.951 L16.4842 841.742 Q16.4842 827.928 22.2451 821.467 Q27.9743 815.006 40.1964 815.006 Q52.4822 815.006 58.2432 821.499 Q64.0042 827.992 64.0042 841.742 L64.0042 854.951 L16.4842 854.951 Z" fill="#000000" fill-rule="nonzero" fill-opacity="1" /><path clip-path="url(#clip240)" d="M44.7161 774.52 L47.5806 774.52 L47.5806 801.447 Q53.6281 801.065 56.8109 797.819 Q59.9619 794.54 59.9619 788.716 Q59.9619 785.342 59.1344 782.191 Q58.3069 779.008 56.6518 775.889 L62.1899 775.889 Q63.5267 779.04 64.227 782.35 Q64.9272 785.66 64.9272 789.066 Q64.9272 797.596 59.9619 802.593 Q54.9967 807.558 46.5303 807.558 Q37.7774 807.558 32.6531 802.848 Q27.4968 798.105 27.4968 790.084 Q27.4968 782.891 32.1438 778.722 Q36.7589 774.52 44.7161 774.52 M42.9973 780.377 Q38.1912 780.44 35.3266 783.082 Q32.4621 785.692 32.4621 790.021 Q32.4621 794.922 35.2312 797.882 Q38.0002 800.811 43.0292 801.256 L42.9973 780.377 Z" fill="#000000" fill-rule="nonzero" fill-opacity="1" /><path clip-path="url(#clip240)" d="M42.4881 735.276 L64.0042 735.276 L64.0042 741.132 L42.679 741.132 Q37.6183 741.132 35.1038 743.105 Q32.5894 745.079 32.5894 749.026 Q32.5894 753.768 35.6131 756.505 Q38.6368 759.243 43.8567 759.243 L64.0042 759.243 L64.0042 765.131 L28.3562 765.131 L28.3562 759.243 L33.8944 759.243 Q30.6797 757.142 29.0883 754.309 Q27.4968 751.445 27.4968 747.721 Q27.4968 741.578 31.3163 738.427 Q35.1038 735.276 42.4881 735.276 Z" fill="#000000" fill-rule="nonzero" fill-opacity="1" /><path clip-path="url(#clip240)" d="M29.4065 700.869 L34.9447 700.869 Q33.6716 703.352 33.035 706.025 Q32.3984 708.699 32.3984 711.563 Q32.3984 715.924 33.7352 718.12 Q35.072 720.284 37.7456 720.284 Q39.7826 720.284 40.9603 718.725 Q42.1061 717.165 43.1565 712.455 L43.6021 710.449 Q44.9389 704.211 47.3897 701.601 Q49.8086 698.959 54.1691 698.959 Q59.1344 698.959 62.0308 702.906 Q64.9272 706.821 64.9272 713.696 Q64.9272 716.56 64.3543 719.68 Q63.8132 722.767 62.6992 726.204 L56.6518 726.204 Q58.3387 722.958 59.198 719.807 Q60.0256 716.656 60.0256 713.569 Q60.0256 709.431 58.6251 707.203 Q57.1929 704.975 54.6147 704.975 Q52.2276 704.975 50.9545 706.598 Q49.6813 708.19 48.5037 713.632 L48.0262 715.669 Q46.8804 721.112 44.5251 723.531 Q42.138 725.95 38.0002 725.95 Q32.9713 725.95 30.2341 722.385 Q27.4968 718.82 27.4968 712.264 Q27.4968 709.017 27.9743 706.153 Q28.4517 703.288 29.4065 700.869 Z" fill="#000000" fill-rule="nonzero" fill-opacity="1" /><path clip-path="url(#clip240)" d="M28.3562 689.634 L28.3562 683.777 L64.0042 683.777 L64.0042 689.634 L28.3562 689.634 M14.479 689.634 L14.479 683.777 L21.895 683.777 L21.895 689.634 L14.479 689.634 Z" fill="#000000" fill-rule="nonzero" fill-opacity="1" /><path clip-path="url(#clip240)" d="M18.2347 665.73 L28.3562 665.73 L28.3562 653.667 L32.9077 653.667 L32.9077 665.73 L52.2594 665.73 Q56.6199 665.73 57.8613 664.553 Q59.1026 663.343 59.1026 659.683 L59.1026 653.667 L64.0042 653.667 L64.0042 659.683 Q64.0042 666.462 61.4897 669.04 Q58.9434 671.619 52.2594 671.619 L32.9077 671.619 L32.9077 675.915 L28.3562 675.915 L28.3562 671.619 L18.2347 671.619 L18.2347 665.73 Z" fill="#000000" fill-rule="nonzero" fill-opacity="1" /><path clip-path="url(#clip240)" d="M67.3143 631.133 Q73.68 633.615 75.6216 635.971 Q77.5631 638.326 77.5631 642.273 L77.5631 646.951 L72.6615 646.951 L72.6615 643.514 Q72.6615 641.095 71.5157 639.758 Q70.3699 638.421 66.1048 636.798 L63.4312 635.748 L28.3562 650.166 L28.3562 643.96 L56.238 632.82 L28.3562 621.68 L28.3562 615.473 L67.3143 631.133 Z" fill="#000000" fill-rule="nonzero" fill-opacity="1" /><polyline clip-path="url(#clip242)" style="stroke:#6495ed; stroke-linecap:round; stroke-linejoin:round; stroke-width:8; stroke-opacity:1; fill:none" points="280.231,1384.21 293.735,1384.2 307.24,1384.18 320.744,1384.16 334.249,1384.14 347.753,1384.11 361.258,1384.07 374.762,1384.02 388.267,1383.96 401.771,1383.88 415.275,1383.77 428.78,1383.64 442.284,1383.48 455.789,1383.28 469.293,1383.02 482.798,1382.71 496.302,1382.32 509.806,1381.84 523.311,1381.26 536.815,1380.55 550.32,1379.68 563.824,1378.64 577.329,1377.38 590.833,1375.87 604.337,1374.07 617.842,1371.93 631.346,1369.39 644.851,1366.4 658.355,1362.9 671.86,1358.8 685.364,1354.04 698.868,1348.52 712.373,1342.15 725.877,1334.85 739.382,1326.5 752.886,1317.01 766.391,1306.25 779.895,1294.13 793.399,1280.52 806.904,1265.32 820.408,1248.43 833.913,1229.73 847.417,1209.14 860.922,1186.58 874.426,1161.97 887.93,1135.27 901.435,1106.44 914.939,1075.47 928.444,1042.38 941.948,1007.22 955.453,970.042 968.957,930.967 982.461,890.127 995.966,847.695 1009.47,803.876 1022.97,758.912 1036.48,713.075 1049.98,666.67 1063.49,620.029 1076.99,573.51 1090.5,527.492 1104,482.371 1117.51,438.553 1131.01,396.448 1144.51,356.466 1158.02,319.011 1171.52,284.468 1185.03,253.206 1198.53,225.562 1212.04,201.842 1225.54,182.313 1239.05,167.195 1252.55,156.663 1266.05,150.837 1279.56,149.787 1293.06,153.523 1306.57,162.002 1320.07,175.127 1333.58,192.746 1347.08,214.658 1360.59,240.616 1374.09,270.331 1387.59,303.478 1401.1,339.703 1414.6,378.625 1428.11,419.849 1441.61,462.966 1455.12,507.566 1468.62,553.24 1482.13,599.587 1495.63,646.22 1509.13,692.771 1522.64,738.897 1536.14,784.279 1549.65,828.632 1563.15,871.699 1576.66,913.261 1590.16,953.129 1603.67,991.152 1617.17,1027.21 1630.67,1061.22 1644.18,1093.12 1657.68,1122.88 1671.19,1150.52 1684.69,1176.04 1698.2,1199.49 1711.7,1220.94 1725.21,1240.45 1738.71,1258.13 1752.21,1274.06 1765.72,1288.35 1779.22,1301.11 1792.73,1312.45 1806.23,1322.49 1819.74,1331.32 1833.24,1339.07 1846.74,1345.84 1860.25,1351.71 1873.75,1356.8 1887.26,1361.18 1900.76,1364.93 1914.27,1368.14 1927.77,1370.86 1941.28,1373.17 1954.78,1375.12 1968.28,1376.75 1981.79,1378.11 1995.29,1379.25 2008.8,1380.19 2022.3,1380.96 2035.81,1381.6 2049.31,1382.12 2062.82,1382.55 2076.32,1382.89 2089.82,1383.17 2103.33,1383.4 2116.83,1383.58 2130.34,1383.72 2143.84,1383.83 2157.35,1383.92 2170.85,1383.99 2184.36,1384.05 2197.86,1384.09 2211.36,1384.13 2224.87,1384.15 2238.37,1384.17 2251.88,1384.19 2265.38,1384.2 2278.89,1384.21 2292.39,1384.22 "/>
<polyline clip-path="url(#clip242)" style="stroke:#b22222; stroke-linecap:round; stroke-linejoin:round; stroke-width:8; stroke-opacity:1; fill:none" points="280.231,1384.24 293.735,1384.24 307.24,1384.23 320.744,1384.23 334.249,1384.23 347.753,1384.23 361.258,1384.23 374.762,1384.23 388.267,1384.24 401.771,1384.22 415.275,1384.22 428.78,1383.4 442.284,1381.39 455.789,1382.28 469.293,1383 482.798,1380.06 496.302,1384.2 509.806,1381.75 523.311,1376.74 536.815,1381.61 550.32,1372 563.824,1377.02 577.329,1375.87 590.833,1374.16 604.337,1368.99 617.842,1355.55 631.346,1351.61 644.851,1361.69 658.355,1355.66 671.86,1366 685.364,1360.59 698.868,1349.33 712.373,1339.37 725.877,1323.98 739.382,1338.11 752.886,1323.65 766.391,1308.46 779.895,1295.27 793.399,1265.11 806.904,1259.21 820.408,1239.9 833.913,1244.64 847.417,1241.85 860.922,1213.66 874.426,1166.62 887.93,1157.65 901.435,1076.9 914.939,1096.54 928.444,1023.48 941.948,1007.96 955.453,964.397 968.957,955.103 982.461,877.263 995.966,817.888 1009.47,735.49 1022.97,757.032 1036.48,770.641 1049.98,692.8 1063.49,587.583 1076.99,543.091 1090.5,565.414 1104,565.11 1117.51,448.172 1131.01,439.128 1144.51,358.825 1158.02,272.911 1171.52,237.701 1185.03,198.902 1198.53,244.083 1212.04,243.783 1225.54,166.657 1239.05,137.84 1252.55,128.048 1266.05,99.3404 1279.56,122.421 1293.06,115.776 1306.57,200.792 1320.07,265.219 1333.58,336.287 1347.08,86.1857 1360.59,253.212 1374.09,294.077 1387.59,225.334 1401.1,343.52 1414.6,318.241 1428.11,528.353 1441.61,541.282 1455.12,541.906 1468.62,605.412 1482.13,604.734 1495.63,715.738 1509.13,632.2 1522.64,714.043 1536.14,797.131 1549.65,779.86 1563.15,872.449 1576.66,916.896 1590.16,988.895 1603.67,984.39 1617.17,1041.93 1630.67,1054.47 1644.18,1093.66 1657.68,1132.12 1671.19,1155.96 1684.69,1140.25 1698.2,1165.77 1711.7,1219.25 1725.21,1166.18 1738.71,1233 1752.21,1260.67 1765.72,1293.91 1779.22,1306.07 1792.73,1313.32 1806.23,1322.85 1819.74,1339.37 1833.24,1348.57 1846.74,1335.6 1860.25,1340.07 1873.75,1341.62 1887.26,1364.93 1900.76,1379.02 1914.27,1363.4 1927.77,1375.03 1941.28,1377.24 1954.78,1377.18 1968.28,1382.16 1981.79,1382.57 1995.29,1384.04 2008.8,1382.9 2022.3,1380.64 2035.81,1383.22 2049.31,1383.82 2062.82,1379.64 2076.32,1384.03 2089.82,1384.15 2103.33,1384.17 2116.83,1382.21 2130.34,1381.52 2143.84,1384.12 2157.35,1384.15 2170.85,1384.24 2184.36,1384.23 2197.86,1384.24 2211.36,1384.24 2224.87,1384.24 2238.37,1384.24 2251.88,1384.24 2265.38,1384.24 2278.89,1384.24 2292.39,1384.24 "/>
<path clip-path="url(#clip240)" d="M1639.65 248.629 L2281.66 248.629 L2281.66 93.1086 L1639.65 93.1086  Z" fill="#ffffff" fill-rule="evenodd" fill-opacity="1"/>
<polyline clip-path="url(#clip240)" style="stroke:#000000; stroke-linecap:round; stroke-linejoin:round; stroke-width:4; stroke-opacity:1; fill:none" points="1639.65,248.629 2281.66,248.629 2281.66,93.1086 1639.65,93.1086 1639.65,248.629 "/>
<polyline clip-path="url(#clip240)" style="stroke:#6495ed; stroke-linecap:round; stroke-linejoin:round; stroke-width:8; stroke-opacity:1; fill:none" points="1663.34,144.949 1805.54,144.949 "/>
<path clip-path="url(#clip240)" d="M1829.24 127.669 L1858.47 127.669 L1858.47 131.604 L1846.2 131.604 L1846.2 162.229 L1841.5 162.229 L1841.5 131.604 L1829.24 131.604 L1829.24 127.669 Z" fill="#000000" fill-rule="nonzero" fill-opacity="1" /><path clip-path="url(#clip240)" d="M1870.86 140.284 Q1870.14 139.868 1869.28 139.682 Q1868.45 139.474 1867.43 139.474 Q1863.82 139.474 1861.87 141.835 Q1859.95 144.173 1859.95 148.571 L1859.95 162.229 L1855.67 162.229 L1855.67 136.303 L1859.95 136.303 L1859.95 140.331 Q1861.3 137.969 1863.45 136.835 Q1865.6 135.678 1868.68 135.678 Q1869.12 135.678 1869.65 135.747 Q1870.19 135.794 1870.83 135.909 L1870.86 140.284 Z" fill="#000000" fill-rule="nonzero" fill-opacity="1" /><path clip-path="url(#clip240)" d="M1874.88 151.997 L1874.88 136.303 L1879.14 136.303 L1879.14 151.835 Q1879.14 155.516 1880.58 157.368 Q1882.01 159.196 1884.88 159.196 Q1888.33 159.196 1890.32 156.997 Q1892.34 154.798 1892.34 151.002 L1892.34 136.303 L1896.6 136.303 L1896.6 162.229 L1892.34 162.229 L1892.34 158.247 Q1890.79 160.608 1888.73 161.766 Q1886.69 162.9 1883.98 162.9 Q1879.51 162.9 1877.2 160.122 Q1874.88 157.344 1874.88 151.997 M1885.6 135.678 L1885.6 135.678 Z" fill="#000000" fill-rule="nonzero" fill-opacity="1" /><path clip-path="url(#clip240)" d="M1927.55 148.201 L1927.55 150.284 L1907.96 150.284 Q1908.24 154.682 1910.6 156.997 Q1912.99 159.289 1917.22 159.289 Q1919.68 159.289 1921.97 158.687 Q1924.28 158.085 1926.55 156.881 L1926.55 160.909 Q1924.26 161.881 1921.85 162.391 Q1919.44 162.9 1916.97 162.9 Q1910.76 162.9 1907.13 159.289 Q1903.52 155.678 1903.52 149.52 Q1903.52 143.155 1906.94 139.428 Q1910.39 135.678 1916.23 135.678 Q1921.46 135.678 1924.49 139.057 Q1927.55 142.414 1927.55 148.201 M1923.29 146.951 Q1923.24 143.456 1921.32 141.372 Q1919.42 139.289 1916.27 139.289 Q1912.71 139.289 1910.56 141.303 Q1908.43 143.317 1908.1 146.974 L1923.29 146.951 Z" fill="#000000" fill-rule="nonzero" fill-opacity="1" /><path clip-path="url(#clip240)" d="M1954.47 131.511 L1954.47 158.386 L1960.12 158.386 Q1967.27 158.386 1970.58 155.145 Q1973.91 151.905 1973.91 144.914 Q1973.91 137.969 1970.58 134.752 Q1967.27 131.511 1960.12 131.511 L1954.47 131.511 M1949.79 127.669 L1959.4 127.669 Q1969.44 127.669 1974.14 131.858 Q1978.84 136.025 1978.84 144.914 Q1978.84 153.849 1974.12 158.039 Q1969.4 162.229 1959.4 162.229 L1949.79 162.229 L1949.79 127.669 Z" fill="#000000" fill-rule="nonzero" fill-opacity="1" /><path clip-path="url(#clip240)" d="M2008.29 148.201 L2008.29 150.284 L1988.7 150.284 Q1988.98 154.682 1991.34 156.997 Q1993.73 159.289 1997.96 159.289 Q2000.42 159.289 2002.71 158.687 Q2005.02 158.085 2007.29 156.881 L2007.29 160.909 Q2005 161.881 2002.59 162.391 Q2000.18 162.9 1997.71 162.9 Q1991.5 162.9 1987.87 159.289 Q1984.26 155.678 1984.26 149.52 Q1984.26 143.155 1987.68 139.428 Q1991.13 135.678 1996.97 135.678 Q2002.2 135.678 2005.23 139.057 Q2008.29 142.414 2008.29 148.201 M2004.03 146.951 Q2003.98 143.456 2002.06 141.372 Q2000.16 139.289 1997.01 139.289 Q1993.45 139.289 1991.3 141.303 Q1989.17 143.317 1988.84 146.974 L2004.03 146.951 Z" fill="#000000" fill-rule="nonzero" fill-opacity="1" /><path clip-path="url(#clip240)" d="M2036.83 146.581 L2036.83 162.229 L2032.57 162.229 L2032.57 146.719 Q2032.57 143.039 2031.13 141.21 Q2029.7 139.382 2026.83 139.382 Q2023.38 139.382 2021.39 141.581 Q2019.4 143.78 2019.4 147.576 L2019.4 162.229 L2015.11 162.229 L2015.11 136.303 L2019.4 136.303 L2019.4 140.331 Q2020.93 137.993 2022.99 136.835 Q2025.07 135.678 2027.78 135.678 Q2032.24 135.678 2034.54 138.456 Q2036.83 141.21 2036.83 146.581 Z" fill="#000000" fill-rule="nonzero" fill-opacity="1" /><path clip-path="url(#clip240)" d="M2061.85 137.067 L2061.85 141.094 Q2060.05 140.169 2058.1 139.706 Q2056.16 139.243 2054.07 139.243 Q2050.9 139.243 2049.3 140.215 Q2047.73 141.187 2047.73 143.131 Q2047.73 144.613 2048.86 145.469 Q2050 146.303 2053.42 147.067 L2054.88 147.391 Q2059.42 148.363 2061.32 150.145 Q2063.24 151.905 2063.24 155.076 Q2063.24 158.687 2060.37 160.793 Q2057.52 162.9 2052.52 162.9 Q2050.44 162.9 2048.17 162.483 Q2045.92 162.09 2043.42 161.28 L2043.42 156.881 Q2045.79 158.108 2048.08 158.733 Q2050.37 159.335 2052.61 159.335 Q2055.62 159.335 2057.24 158.317 Q2058.86 157.275 2058.86 155.4 Q2058.86 153.664 2057.68 152.738 Q2056.53 151.812 2052.57 150.956 L2051.09 150.608 Q2047.13 149.775 2045.37 148.062 Q2043.61 146.326 2043.61 143.317 Q2043.61 139.659 2046.2 137.669 Q2048.8 135.678 2053.56 135.678 Q2055.92 135.678 2058.01 136.025 Q2060.09 136.372 2061.85 137.067 Z" fill="#000000" fill-rule="nonzero" fill-opacity="1" /><path clip-path="url(#clip240)" d="M2070.02 136.303 L2074.28 136.303 L2074.28 162.229 L2070.02 162.229 L2070.02 136.303 M2070.02 126.21 L2074.28 126.21 L2074.28 131.604 L2070.02 131.604 L2070.02 126.21 Z" fill="#000000" fill-rule="nonzero" fill-opacity="1" /><path clip-path="url(#clip240)" d="M2087.41 128.942 L2087.41 136.303 L2096.18 136.303 L2096.18 139.613 L2087.41 139.613 L2087.41 153.687 Q2087.41 156.858 2088.26 157.761 Q2089.14 158.664 2091.8 158.664 L2096.18 158.664 L2096.18 162.229 L2091.8 162.229 Q2086.87 162.229 2085 160.4 Q2083.12 158.548 2083.12 153.687 L2083.12 139.613 L2080 139.613 L2080 136.303 L2083.12 136.303 L2083.12 128.942 L2087.41 128.942 Z" fill="#000000" fill-rule="nonzero" fill-opacity="1" /><path clip-path="url(#clip240)" d="M2112.57 164.636 Q2110.76 169.266 2109.05 170.678 Q2107.34 172.09 2104.47 172.09 L2101.06 172.09 L2101.06 168.525 L2103.56 168.525 Q2105.32 168.525 2106.29 167.692 Q2107.27 166.858 2108.45 163.756 L2109.21 161.812 L2098.73 136.303 L2103.24 136.303 L2111.34 156.581 L2119.44 136.303 L2123.96 136.303 L2112.57 164.636 Z" fill="#000000" fill-rule="nonzero" fill-opacity="1" /><polyline clip-path="url(#clip240)" style="stroke:#b22222; stroke-linecap:round; stroke-linejoin:round; stroke-width:8; stroke-opacity:1; fill:none" points="1663.34,196.789 1805.54,196.789 "/>
<path clip-path="url(#clip240)" d="M1829.24 179.509 L1851.09 179.509 L1851.09 183.444 L1833.91 183.444 L1833.91 193.675 L1850.37 193.675 L1850.37 197.61 L1833.91 197.61 L1833.91 210.133 L1851.5 210.133 L1851.5 214.069 L1829.24 214.069 L1829.24 179.509 Z" fill="#000000" fill-rule="nonzero" fill-opacity="1" /><path clip-path="url(#clip240)" d="M1875.53 188.907 L1875.53 192.934 Q1873.73 192.009 1871.78 191.546 Q1869.84 191.083 1867.75 191.083 Q1864.58 191.083 1862.99 192.055 Q1861.41 193.027 1861.41 194.971 Q1861.41 196.453 1862.55 197.309 Q1863.68 198.143 1867.11 198.907 L1868.56 199.231 Q1873.1 200.203 1875 201.985 Q1876.92 203.745 1876.92 206.916 Q1876.92 210.527 1874.05 212.633 Q1871.2 214.74 1866.2 214.74 Q1864.12 214.74 1861.85 214.323 Q1859.61 213.93 1857.11 213.12 L1857.11 208.721 Q1859.47 209.948 1861.76 210.573 Q1864.05 211.175 1866.3 211.175 Q1869.31 211.175 1870.93 210.157 Q1872.55 209.115 1872.55 207.24 Q1872.55 205.504 1871.37 204.578 Q1870.21 203.652 1866.25 202.796 L1864.77 202.448 Q1860.81 201.615 1859.05 199.902 Q1857.29 198.166 1857.29 195.157 Q1857.29 191.499 1859.88 189.509 Q1862.48 187.518 1867.25 187.518 Q1869.61 187.518 1871.69 187.865 Q1873.77 188.212 1875.53 188.907 Z" fill="#000000" fill-rule="nonzero" fill-opacity="1" /><path clip-path="url(#clip240)" d="M1887.92 180.782 L1887.92 188.143 L1896.69 188.143 L1896.69 191.453 L1887.92 191.453 L1887.92 205.527 Q1887.92 208.698 1888.77 209.601 Q1889.65 210.504 1892.31 210.504 L1896.69 210.504 L1896.69 214.069 L1892.31 214.069 Q1887.38 214.069 1885.51 212.24 Q1883.63 210.388 1883.63 205.527 L1883.63 191.453 L1880.51 191.453 L1880.51 188.143 L1883.63 188.143 L1883.63 180.782 L1887.92 180.782 Z" fill="#000000" fill-rule="nonzero" fill-opacity="1" /><path clip-path="url(#clip240)" d="M1902.29 188.143 L1906.55 188.143 L1906.55 214.069 L1902.29 214.069 L1902.29 188.143 M1902.29 178.05 L1906.55 178.05 L1906.55 183.444 L1902.29 183.444 L1902.29 178.05 Z" fill="#000000" fill-rule="nonzero" fill-opacity="1" /><path clip-path="url(#clip240)" d="M1935.65 193.12 Q1937.24 190.249 1939.47 188.884 Q1941.69 187.518 1944.7 187.518 Q1948.75 187.518 1950.95 190.365 Q1953.15 193.189 1953.15 198.421 L1953.15 214.069 L1948.87 214.069 L1948.87 198.559 Q1948.87 194.833 1947.55 193.027 Q1946.23 191.222 1943.52 191.222 Q1940.21 191.222 1938.29 193.421 Q1936.37 195.62 1936.37 199.416 L1936.37 214.069 L1932.08 214.069 L1932.08 198.559 Q1932.08 194.809 1930.76 193.027 Q1929.44 191.222 1926.69 191.222 Q1923.43 191.222 1921.5 193.444 Q1919.58 195.643 1919.58 199.416 L1919.58 214.069 L1915.3 214.069 L1915.3 188.143 L1919.58 188.143 L1919.58 192.171 Q1921.04 189.786 1923.08 188.652 Q1925.12 187.518 1927.92 187.518 Q1930.74 187.518 1932.71 188.953 Q1934.7 190.388 1935.65 193.12 Z" fill="#000000" fill-rule="nonzero" fill-opacity="1" /><path clip-path="url(#clip240)" d="M1973.43 201.036 Q1968.26 201.036 1966.27 202.217 Q1964.28 203.397 1964.28 206.245 Q1964.28 208.513 1965.76 209.856 Q1967.27 211.175 1969.84 211.175 Q1973.38 211.175 1975.51 208.675 Q1977.66 206.152 1977.66 201.985 L1977.66 201.036 L1973.43 201.036 M1981.92 199.277 L1981.92 214.069 L1977.66 214.069 L1977.66 210.133 Q1976.2 212.495 1974.03 213.629 Q1971.85 214.74 1968.7 214.74 Q1964.72 214.74 1962.36 212.518 Q1960.02 210.272 1960.02 206.522 Q1960.02 202.147 1962.94 199.925 Q1965.88 197.703 1971.69 197.703 L1977.66 197.703 L1977.66 197.286 Q1977.66 194.347 1975.72 192.749 Q1973.8 191.129 1970.3 191.129 Q1968.08 191.129 1965.97 191.661 Q1963.87 192.194 1961.92 193.259 L1961.92 189.323 Q1964.26 188.421 1966.46 187.981 Q1968.66 187.518 1970.74 187.518 Q1976.37 187.518 1979.14 190.434 Q1981.92 193.351 1981.92 199.277 Z" fill="#000000" fill-rule="nonzero" fill-opacity="1" /><path clip-path="url(#clip240)" d="M1994.91 180.782 L1994.91 188.143 L2003.68 188.143 L2003.68 191.453 L1994.91 191.453 L1994.91 205.527 Q1994.91 208.698 1995.76 209.601 Q1996.64 210.504 1999.3 210.504 L2003.68 210.504 L2003.68 214.069 L1999.3 214.069 Q1994.37 214.069 1992.5 212.24 Q1990.62 210.388 1990.62 205.527 L1990.62 191.453 L1987.5 191.453 L1987.5 188.143 L1990.62 188.143 L1990.62 180.782 L1994.91 180.782 Z" fill="#000000" fill-rule="nonzero" fill-opacity="1" /><path clip-path="url(#clip240)" d="M2031.46 200.041 L2031.46 202.124 L2011.87 202.124 Q2012.15 206.522 2014.51 208.837 Q2016.9 211.129 2021.13 211.129 Q2023.59 211.129 2025.88 210.527 Q2028.19 209.925 2030.46 208.721 L2030.46 212.749 Q2028.17 213.721 2025.76 214.231 Q2023.36 214.74 2020.88 214.74 Q2014.68 214.74 2011.04 211.129 Q2007.43 207.518 2007.43 201.36 Q2007.43 194.995 2010.86 191.268 Q2014.3 187.518 2020.14 187.518 Q2025.37 187.518 2028.4 190.897 Q2031.46 194.254 2031.46 200.041 M2027.2 198.791 Q2027.15 195.296 2025.23 193.212 Q2023.33 191.129 2020.18 191.129 Q2016.62 191.129 2014.47 193.143 Q2012.34 195.157 2012.01 198.814 L2027.2 198.791 Z" fill="#000000" fill-rule="nonzero" fill-opacity="1" /><path clip-path="url(#clip240)" d="M2055.51 192.078 L2055.51 178.05 L2059.77 178.05 L2059.77 214.069 L2055.51 214.069 L2055.51 210.18 Q2054.17 212.495 2052.11 213.629 Q2050.07 214.74 2047.2 214.74 Q2042.5 214.74 2039.54 210.99 Q2036.6 207.24 2036.6 201.129 Q2036.6 195.018 2039.54 191.268 Q2042.5 187.518 2047.2 187.518 Q2050.07 187.518 2052.11 188.652 Q2054.17 189.763 2055.51 192.078 M2040.99 201.129 Q2040.99 205.828 2042.92 208.513 Q2044.86 211.175 2048.24 211.175 Q2051.62 211.175 2053.56 208.513 Q2055.51 205.828 2055.51 201.129 Q2055.51 196.43 2053.56 193.768 Q2051.62 191.083 2048.24 191.083 Q2044.86 191.083 2042.92 193.768 Q2040.99 196.43 2040.99 201.129 Z" fill="#000000" fill-rule="nonzero" fill-opacity="1" /><path clip-path="url(#clip240)" d="M2088.47 183.351 L2088.47 210.226 L2094.12 210.226 Q2101.27 210.226 2104.58 206.985 Q2107.92 203.745 2107.92 196.754 Q2107.92 189.809 2104.58 186.592 Q2101.27 183.351 2094.12 183.351 L2088.47 183.351 M2083.8 179.509 L2093.4 179.509 Q2103.45 179.509 2108.15 183.698 Q2112.85 187.865 2112.85 196.754 Q2112.85 205.689 2108.12 209.879 Q2103.4 214.069 2093.4 214.069 L2083.8 214.069 L2083.8 179.509 Z" fill="#000000" fill-rule="nonzero" fill-opacity="1" /><path clip-path="url(#clip240)" d="M2142.29 200.041 L2142.29 202.124 L2122.71 202.124 Q2122.98 206.522 2125.35 208.837 Q2127.73 211.129 2131.97 211.129 Q2134.42 211.129 2136.71 210.527 Q2139.03 209.925 2141.29 208.721 L2141.29 212.749 Q2139 213.721 2136.6 214.231 Q2134.19 214.74 2131.71 214.74 Q2125.51 214.74 2121.87 211.129 Q2118.26 207.518 2118.26 201.36 Q2118.26 194.995 2121.69 191.268 Q2125.14 187.518 2130.97 187.518 Q2136.2 187.518 2139.23 190.897 Q2142.29 194.254 2142.29 200.041 M2138.03 198.791 Q2137.98 195.296 2136.06 193.212 Q2134.17 191.129 2131.02 191.129 Q2127.45 191.129 2125.3 193.143 Q2123.17 195.157 2122.85 198.814 L2138.03 198.791 Z" fill="#000000" fill-rule="nonzero" fill-opacity="1" /><path clip-path="url(#clip240)" d="M2170.83 198.421 L2170.83 214.069 L2166.57 214.069 L2166.57 198.559 Q2166.57 194.879 2165.14 193.05 Q2163.7 191.222 2160.83 191.222 Q2157.38 191.222 2155.39 193.421 Q2153.4 195.62 2153.4 199.416 L2153.4 214.069 L2149.12 214.069 L2149.12 188.143 L2153.4 188.143 L2153.4 192.171 Q2154.93 189.833 2156.99 188.675 Q2159.07 187.518 2161.78 187.518 Q2166.25 187.518 2168.54 190.296 Q2170.83 193.05 2170.83 198.421 Z" fill="#000000" fill-rule="nonzero" fill-opacity="1" /><path clip-path="url(#clip240)" d="M2195.85 188.907 L2195.85 192.934 Q2194.05 192.009 2192.1 191.546 Q2190.16 191.083 2188.08 191.083 Q2184.91 191.083 2183.31 192.055 Q2181.73 193.027 2181.73 194.971 Q2181.73 196.453 2182.87 197.309 Q2184 198.143 2187.43 198.907 L2188.89 199.231 Q2193.42 200.203 2195.32 201.985 Q2197.24 203.745 2197.24 206.916 Q2197.24 210.527 2194.37 212.633 Q2191.53 214.74 2186.53 214.74 Q2184.44 214.74 2182.17 214.323 Q2179.93 213.93 2177.43 213.12 L2177.43 208.721 Q2179.79 209.948 2182.08 210.573 Q2184.37 211.175 2186.62 211.175 Q2189.63 211.175 2191.25 210.157 Q2192.87 209.115 2192.87 207.24 Q2192.87 205.504 2191.69 204.578 Q2190.53 203.652 2186.57 202.796 L2185.09 202.448 Q2181.13 201.615 2179.37 199.902 Q2177.61 198.166 2177.61 195.157 Q2177.61 191.499 2180.21 189.509 Q2182.8 187.518 2187.57 187.518 Q2189.93 187.518 2192.01 187.865 Q2194.1 188.212 2195.85 188.907 Z" fill="#000000" fill-rule="nonzero" fill-opacity="1" /><path clip-path="url(#clip240)" d="M2204.03 188.143 L2208.29 188.143 L2208.29 214.069 L2204.03 214.069 L2204.03 188.143 M2204.03 178.05 L2208.29 178.05 L2208.29 183.444 L2204.03 183.444 L2204.03 178.05 Z" fill="#000000" fill-rule="nonzero" fill-opacity="1" /><path clip-path="url(#clip240)" d="M2221.41 180.782 L2221.41 188.143 L2230.18 188.143 L2230.18 191.453 L2221.41 191.453 L2221.41 205.527 Q2221.41 208.698 2222.27 209.601 Q2223.15 210.504 2225.81 210.504 L2230.18 210.504 L2230.18 214.069 L2225.81 214.069 Q2220.88 214.069 2219 212.24 Q2217.13 210.388 2217.13 205.527 L2217.13 191.453 L2214 191.453 L2214 188.143 L2217.13 188.143 L2217.13 180.782 L2221.41 180.782 Z" fill="#000000" fill-rule="nonzero" fill-opacity="1" /><path clip-path="url(#clip240)" d="M2246.57 216.476 Q2244.77 221.106 2243.05 222.518 Q2241.34 223.93 2238.47 223.93 L2235.07 223.93 L2235.07 220.365 L2237.57 220.365 Q2239.33 220.365 2240.3 219.532 Q2241.27 218.698 2242.45 215.596 L2243.22 213.652 L2232.73 188.143 L2237.24 188.143 L2245.35 208.421 L2253.45 188.143 L2257.96 188.143 L2246.57 216.476 Z" fill="#000000" fill-rule="nonzero" fill-opacity="1" /></svg>
