<?xml version="1.0" encoding="utf-8"?>
<svg xmlns="http://www.w3.org/2000/svg" xmlns:xlink="http://www.w3.org/1999/xlink" width="600" height="400" viewBox="0 0 2400 1600">
<defs>
  <clipPath id="clip610">
    <rect x="0" y="0" width="2400" height="1600"/>
  </clipPath>
</defs>
<path clip-path="url(#clip610)" d="M0 1600 L2400 1600 L2400 0 L0 0  Z" fill="#ffffff" fill-rule="evenodd" fill-opacity="1"/>
<defs>
  <clipPath id="clip611">
    <rect x="480" y="0" width="1681" height="1600"/>
  </clipPath>
</defs>
<path clip-path="url(#clip610)" d="M219.866 1423.18 L2352.76 1423.18 L2352.76 47.2441 L219.866 47.2441  Z" fill="#ffffff" fill-rule="evenodd" fill-opacity="1"/>
<defs>
  <clipPath id="clip612">
    <rect x="219" y="47" width="2134" height="1377"/>
  </clipPath>
</defs>
<polyline clip-path="url(#clip612)" style="stroke:#000000; stroke-linecap:round; stroke-linejoin:round; stroke-width:2; stroke-opacity:0.1; fill:none" points="462.318,1423.18 462.318,47.2441 "/>
<polyline clip-path="url(#clip612)" style="stroke:#000000; stroke-linecap:round; stroke-linejoin:round; stroke-width:2; stroke-opacity:0.1; fill:none" points="902.406,1423.18 902.406,47.2441 "/>
<polyline clip-path="url(#clip612)" style="stroke:#000000; stroke-linecap:round; stroke-linejoin:round; stroke-width:2; stroke-opacity:0.1; fill:none" points="1342.49,1423.18 1342.49,47.2441 "/>
<polyline clip-path="url(#clip612)" style="stroke:#000000; stroke-linecap:round; stroke-linejoin:round; stroke-width:2; stroke-opacity:0.1; fill:none" points="1782.58,1423.18 1782.58,47.2441 "/>
<polyline clip-path="url(#clip612)" style="stroke:#000000; stroke-linecap:round; stroke-linejoin:round; stroke-width:2; stroke-opacity:0.1; fill:none" points="2222.67,1423.18 2222.67,47.2441 "/>
<polyline clip-path="url(#clip612)" style="stroke:#000000; stroke-linecap:round; stroke-linejoin:round; stroke-width:2; stroke-opacity:0.1; fill:none" points="219.866,1384.24 2352.76,1384.24 "/>
<polyline clip-path="url(#clip612)" style="stroke:#000000; stroke-linecap:round; stroke-linejoin:round; stroke-width:2; stroke-opacity:0.1; fill:none" points="219.866,1091.3 2352.76,1091.3 "/>
<polyline clip-path="url(#clip612)" style="stroke:#000000; stroke-linecap:round; stroke-linejoin:round; stroke-width:2; stroke-opacity:0.1; fill:none" points="219.866,798.36 2352.76,798.36 "/>
<polyline clip-path="url(#clip612)" style="stroke:#000000; stroke-linecap:round; stroke-linejoin:round; stroke-width:2; stroke-opacity:0.1; fill:none" points="219.866,505.421 2352.76,505.421 "/>
<polyline clip-path="url(#clip612)" style="stroke:#000000; stroke-linecap:round; stroke-linejoin:round; stroke-width:2; stroke-opacity:0.1; fill:none" points="219.866,212.482 2352.76,212.482 "/>
<polyline clip-path="url(#clip610)" style="stroke:#000000; stroke-linecap:round; stroke-linejoin:round; stroke-width:4; stroke-opacity:1; fill:none" points="219.866,1423.18 2352.76,1423.18 "/>
<polyline clip-path="url(#clip610)" style="stroke:#000000; stroke-linecap:round; stroke-linejoin:round; stroke-width:4; stroke-opacity:1; fill:none" points="462.318,1423.18 462.318,1404.28 "/>
<polyline clip-path="url(#clip610)" style="stroke:#000000; stroke-linecap:round; stroke-linejoin:round; stroke-width:4; stroke-opacity:1; fill:none" points="902.406,1423.18 902.406,1404.28 "/>
<polyline clip-path="url(#clip610)" style="stroke:#000000; stroke-linecap:round; stroke-linejoin:round; stroke-width:4; stroke-opacity:1; fill:none" points="1342.49,1423.18 1342.49,1404.28 "/>
<polyline clip-path="url(#clip610)" style="stroke:#000000; stroke-linecap:round; stroke-linejoin:round; stroke-width:4; stroke-opacity:1; fill:none" points="1782.58,1423.18 1782.58,1404.28 "/>
<polyline clip-path="url(#clip610)" style="stroke:#000000; stroke-linecap:round; stroke-linejoin:round; stroke-width:4; stroke-opacity:1; fill:none" points="2222.67,1423.18 2222.67,1404.28 "/>
<path clip-path="url(#clip610)" d="M431.219 1468.75 L460.895 1468.75 L460.895 1472.69 L431.219 1472.69 L431.219 1468.75 Z" fill="#000000" fill-rule="nonzero" fill-opacity="1" /><path clip-path="url(#clip610)" d="M483.835 1455.09 L472.029 1473.54 L483.835 1473.54 L483.835 1455.09 M482.608 1451.02 L488.487 1451.02 L488.487 1473.54 L493.418 1473.54 L493.418 1477.43 L488.487 1477.43 L488.487 1485.58 L483.835 1485.58 L483.835 1477.43 L468.233 1477.43 L468.233 1472.92 L482.608 1451.02 Z" fill="#000000" fill-rule="nonzero" fill-opacity="1" /><path clip-path="url(#clip610)" d="M872.348 1468.75 L902.024 1468.75 L902.024 1472.69 L872.348 1472.69 L872.348 1468.75 Z" fill="#000000" fill-rule="nonzero" fill-opacity="1" /><path clip-path="url(#clip610)" d="M916.144 1481.64 L932.463 1481.64 L932.463 1485.58 L910.519 1485.58 L910.519 1481.64 Q913.181 1478.89 917.764 1474.26 Q922.371 1469.61 923.551 1468.27 Q925.797 1465.74 926.676 1464.01 Q927.579 1462.25 927.579 1460.56 Q927.579 1457.8 925.635 1456.07 Q923.713 1454.33 920.612 1454.33 Q918.412 1454.33 915.959 1455.09 Q913.528 1455.86 910.751 1457.41 L910.751 1452.69 Q913.575 1451.55 916.028 1450.97 Q918.482 1450.39 920.519 1450.39 Q925.889 1450.39 929.084 1453.08 Q932.278 1455.77 932.278 1460.26 Q932.278 1462.39 931.468 1464.31 Q930.681 1466.2 928.574 1468.8 Q927.996 1469.47 924.894 1472.69 Q921.792 1475.88 916.144 1481.64 Z" fill="#000000" fill-rule="nonzero" fill-opacity="1" /><path clip-path="url(#clip610)" d="M1342.49 1454.1 Q1338.88 1454.1 1337.05 1457.66 Q1335.25 1461.2 1335.25 1468.33 Q1335.25 1475.44 1337.05 1479.01 Q1338.88 1482.55 1342.49 1482.55 Q1346.13 1482.55 1347.93 1479.01 Q1349.76 1475.44 1349.76 1468.33 Q1349.76 1461.2 1347.93 1457.66 Q1346.13 1454.1 1342.49 1454.1 M1342.49 1450.39 Q1348.3 1450.39 1351.36 1455 Q1354.44 1459.58 1354.44 1468.33 Q1354.44 1477.06 1351.36 1481.67 Q1348.3 1486.25 1342.49 1486.25 Q1336.68 1486.25 1333.6 1481.67 Q1330.55 1477.06 1330.55 1468.33 Q1330.55 1459.58 1333.6 1455 Q1336.68 1450.39 1342.49 1450.39 Z" fill="#000000" fill-rule="nonzero" fill-opacity="1" /><path clip-path="url(#clip610)" d="M1777.23 1481.64 L1793.55 1481.64 L1793.55 1485.58 L1771.61 1485.58 L1771.61 1481.64 Q1774.27 1478.89 1778.85 1474.26 Q1783.46 1469.61 1784.64 1468.27 Q1786.89 1465.74 1787.77 1464.01 Q1788.67 1462.25 1788.67 1460.56 Q1788.67 1457.8 1786.72 1456.07 Q1784.8 1454.33 1781.7 1454.33 Q1779.5 1454.33 1777.05 1455.09 Q1774.62 1455.86 1771.84 1457.41 L1771.84 1452.69 Q1774.66 1451.55 1777.12 1450.97 Q1779.57 1450.39 1781.61 1450.39 Q1786.98 1450.39 1790.17 1453.08 Q1793.37 1455.77 1793.37 1460.26 Q1793.37 1462.39 1792.56 1464.31 Q1791.77 1466.2 1789.66 1468.8 Q1789.08 1469.47 1785.98 1472.69 Q1782.88 1475.88 1777.23 1481.64 Z" fill="#000000" fill-rule="nonzero" fill-opacity="1" /><path clip-path="url(#clip610)" d="M2225.68 1455.09 L2213.87 1473.54 L2225.68 1473.54 L2225.68 1455.09 M2224.45 1451.02 L2230.33 1451.02 L2230.33 1473.54 L2235.26 1473.54 L2235.26 1477.43 L2230.33 1477.43 L2230.33 1485.58 L2225.68 1485.58 L2225.68 1477.43 L2210.07 1477.43 L2210.07 1472.92 L2224.45 1451.02 Z" fill="#000000" fill-rule="nonzero" fill-opacity="1" /><path clip-path="url(#clip610)" d="M1036.52 1545.76 Q1038.59 1546.46 1040.53 1548.76 Q1042.5 1551.05 1044.48 1555.06 L1051 1568.04 L1044.1 1568.04 L1038.02 1555.85 Q1035.66 1551.08 1033.43 1549.52 Q1031.24 1547.96 1027.42 1547.96 L1020.42 1547.96 L1020.42 1568.04 L1013.99 1568.04 L1013.99 1520.52 L1028.5 1520.52 Q1036.65 1520.52 1040.66 1523.93 Q1044.67 1527.34 1044.67 1534.21 Q1044.67 1538.7 1042.57 1541.66 Q1040.5 1544.62 1036.52 1545.76 M1020.42 1525.81 L1020.42 1542.68 L1028.5 1542.68 Q1033.15 1542.68 1035.5 1540.54 Q1037.89 1538.38 1037.89 1534.21 Q1037.89 1530.04 1035.5 1527.94 Q1033.15 1525.81 1028.5 1525.81 L1020.42 1525.81 Z" fill="#000000" fill-rule="nonzero" fill-opacity="1" /><path clip-path="url(#clip610)" d="M1073.79 1550.12 Q1066.69 1550.12 1063.96 1551.75 Q1061.22 1553.37 1061.22 1557.29 Q1061.22 1560.4 1063.26 1562.25 Q1065.33 1564.07 1068.86 1564.07 Q1073.73 1564.07 1076.66 1560.63 Q1079.62 1557.16 1079.62 1551.43 L1079.62 1550.12 L1073.79 1550.12 M1085.47 1547.71 L1085.47 1568.04 L1079.62 1568.04 L1079.62 1562.63 Q1077.61 1565.88 1074.62 1567.44 Q1071.63 1568.97 1067.3 1568.97 Q1061.82 1568.97 1058.58 1565.91 Q1055.36 1562.82 1055.36 1557.67 Q1055.36 1551.65 1059.37 1548.6 Q1063.42 1545.54 1071.4 1545.54 L1079.62 1545.54 L1079.62 1544.97 Q1079.62 1540.93 1076.94 1538.73 Q1074.3 1536.5 1069.5 1536.5 Q1066.44 1536.5 1063.54 1537.23 Q1060.65 1537.97 1057.97 1539.43 L1057.97 1534.02 Q1061.19 1532.78 1064.21 1532.17 Q1067.24 1531.54 1070.1 1531.54 Q1077.83 1531.54 1081.65 1535.55 Q1085.47 1539.56 1085.47 1547.71 Z" fill="#000000" fill-rule="nonzero" fill-opacity="1" /><path clip-path="url(#clip610)" d="M1127.17 1546.53 L1127.17 1568.04 L1121.31 1568.04 L1121.31 1546.72 Q1121.31 1541.66 1119.34 1539.14 Q1117.37 1536.63 1113.42 1536.63 Q1108.68 1536.63 1105.94 1539.65 Q1103.2 1542.68 1103.2 1547.9 L1103.2 1568.04 L1097.31 1568.04 L1097.31 1532.4 L1103.2 1532.4 L1103.2 1537.93 Q1105.3 1534.72 1108.13 1533.13 Q1111 1531.54 1114.72 1531.54 Q1120.87 1531.54 1124.02 1535.36 Q1127.17 1539.14 1127.17 1546.53 Z" fill="#000000" fill-rule="nonzero" fill-opacity="1" /><path clip-path="url(#clip610)" d="M1162.31 1537.81 L1162.31 1518.52 L1168.16 1518.52 L1168.16 1568.04 L1162.31 1568.04 L1162.31 1562.7 Q1160.46 1565.88 1157.63 1567.44 Q1154.83 1568.97 1150.88 1568.97 Q1144.42 1568.97 1140.35 1563.81 Q1136.3 1558.65 1136.3 1550.25 Q1136.3 1541.85 1140.35 1536.69 Q1144.42 1531.54 1150.88 1531.54 Q1154.83 1531.54 1157.63 1533.1 Q1160.46 1534.62 1162.31 1537.81 M1142.35 1550.25 Q1142.35 1556.71 1144.99 1560.4 Q1147.67 1564.07 1152.31 1564.07 Q1156.96 1564.07 1159.63 1560.4 Q1162.31 1556.71 1162.31 1550.25 Q1162.31 1543.79 1159.63 1540.13 Q1156.96 1536.44 1152.31 1536.44 Q1147.67 1536.44 1144.99 1540.13 Q1142.35 1543.79 1142.35 1550.25 Z" fill="#000000" fill-rule="nonzero" fill-opacity="1" /><path clip-path="url(#clip610)" d="M1194.04 1536.5 Q1189.33 1536.5 1186.59 1540.19 Q1183.86 1543.85 1183.86 1550.25 Q1183.86 1556.65 1186.56 1560.34 Q1189.3 1564 1194.04 1564 Q1198.72 1564 1201.46 1560.31 Q1204.19 1556.62 1204.19 1550.25 Q1204.19 1543.92 1201.46 1540.23 Q1198.72 1536.5 1194.04 1536.5 M1194.04 1531.54 Q1201.68 1531.54 1206.04 1536.5 Q1210.4 1541.47 1210.4 1550.25 Q1210.4 1559 1206.04 1564 Q1201.68 1568.97 1194.04 1568.97 Q1186.37 1568.97 1182.01 1564 Q1177.68 1559 1177.68 1550.25 Q1177.68 1541.47 1182.01 1536.5 Q1186.37 1531.54 1194.04 1531.54 Z" fill="#000000" fill-rule="nonzero" fill-opacity="1" /><path clip-path="url(#clip610)" d="M1247.86 1539.24 Q1250.06 1535.29 1253.11 1533.41 Q1256.17 1531.54 1260.31 1531.54 Q1265.88 1531.54 1268.9 1535.45 Q1271.92 1539.33 1271.92 1546.53 L1271.92 1568.04 L1266.04 1568.04 L1266.04 1546.72 Q1266.04 1541.59 1264.22 1539.11 Q1262.41 1536.63 1258.68 1536.63 Q1254.13 1536.63 1251.49 1539.65 Q1248.85 1542.68 1248.85 1547.9 L1248.85 1568.04 L1242.96 1568.04 L1242.96 1546.72 Q1242.96 1541.56 1241.15 1539.11 Q1239.33 1536.63 1235.54 1536.63 Q1231.06 1536.63 1228.41 1539.68 Q1225.77 1542.71 1225.77 1547.9 L1225.77 1568.04 L1219.88 1568.04 L1219.88 1532.4 L1225.77 1532.4 L1225.77 1537.93 Q1227.78 1534.66 1230.58 1533.1 Q1233.38 1531.54 1237.23 1531.54 Q1241.11 1531.54 1243.82 1533.51 Q1246.56 1535.48 1247.86 1539.24 Z" fill="#000000" fill-rule="nonzero" fill-opacity="1" /><path clip-path="url(#clip610)" d="M1316.83 1568.04 L1298.69 1520.52 L1305.41 1520.52 L1320.46 1560.53 L1335.55 1520.52 L1342.23 1520.52 L1324.12 1568.04 L1316.83 1568.04 Z" fill="#000000" fill-rule="nonzero" fill-opacity="1" /><path clip-path="url(#clip610)" d="M1360.06 1550.12 Q1352.96 1550.12 1350.22 1551.75 Q1347.49 1553.37 1347.49 1557.29 Q1347.49 1560.4 1349.52 1562.25 Q1351.59 1564.07 1355.12 1564.07 Q1359.99 1564.07 1362.92 1560.63 Q1365.88 1557.16 1365.88 1551.43 L1365.88 1550.12 L1360.06 1550.12 M1371.74 1547.71 L1371.74 1568.04 L1365.88 1568.04 L1365.88 1562.63 Q1363.88 1565.88 1360.89 1567.44 Q1357.89 1568.97 1353.56 1568.97 Q1348.09 1568.97 1344.84 1565.91 Q1341.63 1562.82 1341.63 1557.67 Q1341.63 1551.65 1345.64 1548.6 Q1349.68 1545.54 1357.67 1545.54 L1365.88 1545.54 L1365.88 1544.97 Q1365.88 1540.93 1363.21 1538.73 Q1360.57 1536.5 1355.76 1536.5 Q1352.71 1536.5 1349.81 1537.23 Q1346.91 1537.97 1344.24 1539.43 L1344.24 1534.02 Q1347.45 1532.78 1350.48 1532.17 Q1353.5 1531.54 1356.37 1531.54 Q1364.1 1531.54 1367.92 1535.55 Q1371.74 1539.56 1371.74 1547.71 Z" fill="#000000" fill-rule="nonzero" fill-opacity="1" /><path clip-path="url(#clip610)" d="M1404.46 1537.87 Q1403.47 1537.3 1402.29 1537.04 Q1401.15 1536.76 1399.75 1536.76 Q1394.78 1536.76 1392.11 1540 Q1389.47 1543.22 1389.47 1549.27 L1389.47 1568.04 L1383.58 1568.04 L1383.58 1532.4 L1389.47 1532.4 L1389.47 1537.93 Q1391.31 1534.69 1394.27 1533.13 Q1397.23 1531.54 1401.47 1531.54 Q1402.07 1531.54 1402.8 1531.63 Q1403.54 1531.7 1404.43 1531.85 L1404.46 1537.87 Z" fill="#000000" fill-rule="nonzero" fill-opacity="1" /><path clip-path="url(#clip610)" d="M1410.6 1532.4 L1416.46 1532.4 L1416.46 1568.04 L1410.6 1568.04 L1410.6 1532.4 M1410.6 1518.52 L1416.46 1518.52 L1416.46 1525.93 L1410.6 1525.93 L1410.6 1518.52 Z" fill="#000000" fill-rule="nonzero" fill-opacity="1" /><path clip-path="url(#clip610)" d="M1444.91 1550.12 Q1437.81 1550.12 1435.08 1551.75 Q1432.34 1553.37 1432.34 1557.29 Q1432.34 1560.4 1434.38 1562.25 Q1436.45 1564.07 1439.98 1564.07 Q1444.85 1564.07 1447.78 1560.63 Q1450.74 1557.16 1450.74 1551.43 L1450.74 1550.12 L1444.91 1550.12 M1456.59 1547.71 L1456.59 1568.04 L1450.74 1568.04 L1450.74 1562.63 Q1448.73 1565.88 1445.74 1567.44 Q1442.75 1568.97 1438.42 1568.97 Q1432.95 1568.97 1429.7 1565.91 Q1426.48 1562.82 1426.48 1557.67 Q1426.48 1551.65 1430.49 1548.6 Q1434.54 1545.54 1442.53 1545.54 L1450.74 1545.54 L1450.74 1544.97 Q1450.74 1540.93 1448.06 1538.73 Q1445.42 1536.5 1440.62 1536.5 Q1437.56 1536.5 1434.66 1537.23 Q1431.77 1537.97 1429.09 1539.43 L1429.09 1534.02 Q1432.31 1532.78 1435.33 1532.17 Q1438.36 1531.54 1441.22 1531.54 Q1448.95 1531.54 1452.77 1535.55 Q1456.59 1539.56 1456.59 1547.71 Z" fill="#000000" fill-rule="nonzero" fill-opacity="1" /><path clip-path="url(#clip610)" d="M1494.25 1550.25 Q1494.25 1543.79 1491.57 1540.13 Q1488.93 1536.44 1484.28 1536.44 Q1479.64 1536.44 1476.96 1540.13 Q1474.32 1543.79 1474.32 1550.25 Q1474.32 1556.71 1476.96 1560.4 Q1479.64 1564.07 1484.28 1564.07 Q1488.93 1564.07 1491.57 1560.4 Q1494.25 1556.71 1494.25 1550.25 M1474.32 1537.81 Q1476.17 1534.62 1478.97 1533.1 Q1481.8 1531.54 1485.72 1531.54 Q1492.21 1531.54 1496.25 1536.69 Q1500.33 1541.85 1500.33 1550.25 Q1500.33 1558.65 1496.25 1563.81 Q1492.21 1568.97 1485.72 1568.97 Q1481.8 1568.97 1478.97 1567.44 Q1476.17 1565.88 1474.32 1562.7 L1474.32 1568.04 L1468.43 1568.04 L1468.43 1518.52 L1474.32 1518.52 L1474.32 1537.81 Z" fill="#000000" fill-rule="nonzero" fill-opacity="1" /><path clip-path="url(#clip610)" d="M1510.03 1518.52 L1515.89 1518.52 L1515.89 1568.04 L1510.03 1568.04 L1510.03 1518.52 Z" fill="#000000" fill-rule="nonzero" fill-opacity="1" /><path clip-path="url(#clip610)" d="M1558.64 1548.76 L1558.64 1551.62 L1531.71 1551.62 Q1532.09 1557.67 1535.34 1560.85 Q1538.62 1564 1544.44 1564 Q1547.81 1564 1550.97 1563.17 Q1554.15 1562.35 1557.27 1560.69 L1557.27 1566.23 Q1554.12 1567.57 1550.81 1568.27 Q1547.5 1568.97 1544.09 1568.97 Q1535.56 1568.97 1530.56 1564 Q1525.6 1559.04 1525.6 1550.57 Q1525.6 1541.82 1530.31 1536.69 Q1535.05 1531.54 1543.07 1531.54 Q1550.27 1531.54 1554.43 1536.18 Q1558.64 1540.8 1558.64 1548.76 M1552.78 1547.04 Q1552.72 1542.23 1550.07 1539.37 Q1547.46 1536.5 1543.14 1536.5 Q1538.23 1536.5 1535.27 1539.27 Q1532.35 1542.04 1531.9 1547.07 L1552.78 1547.04 Z" fill="#000000" fill-rule="nonzero" fill-opacity="1" /><polyline clip-path="url(#clip610)" style="stroke:#000000; stroke-linecap:round; stroke-linejoin:round; stroke-width:4; stroke-opacity:1; fill:none" points="219.866,1423.18 219.866,47.2441 "/>
<polyline clip-path="url(#clip610)" style="stroke:#000000; stroke-linecap:round; stroke-linejoin:round; stroke-width:4; stroke-opacity:1; fill:none" points="219.866,1384.24 238.764,1384.24 "/>
<polyline clip-path="url(#clip610)" style="stroke:#000000; stroke-linecap:round; stroke-linejoin:round; stroke-width:4; stroke-opacity:1; fill:none" points="219.866,1091.3 238.764,1091.3 "/>
<polyline clip-path="url(#clip610)" style="stroke:#000000; stroke-linecap:round; stroke-linejoin:round; stroke-width:4; stroke-opacity:1; fill:none" points="219.866,798.36 238.764,798.36 "/>
<polyline clip-path="url(#clip610)" style="stroke:#000000; stroke-linecap:round; stroke-linejoin:round; stroke-width:4; stroke-opacity:1; fill:none" points="219.866,505.421 238.764,505.421 "/>
<polyline clip-path="url(#clip610)" style="stroke:#000000; stroke-linecap:round; stroke-linejoin:round; stroke-width:4; stroke-opacity:1; fill:none" points="219.866,212.482 238.764,212.482 "/>
<path clip-path="url(#clip610)" d="M126.691 1370.04 Q123.08 1370.04 121.251 1373.6 Q119.445 1377.14 119.445 1384.27 Q119.445 1391.38 121.251 1394.94 Q123.08 1398.49 126.691 1398.49 Q130.325 1398.49 132.13 1394.94 Q133.959 1391.38 133.959 1384.27 Q133.959 1377.14 132.13 1373.6 Q130.325 1370.04 126.691 1370.04 M126.691 1366.33 Q132.501 1366.33 135.556 1370.94 Q138.635 1375.52 138.635 1384.27 Q138.635 1393 135.556 1397.61 Q132.501 1402.19 126.691 1402.19 Q120.88 1402.19 117.802 1397.61 Q114.746 1393 114.746 1384.27 Q114.746 1375.52 117.802 1370.94 Q120.88 1366.33 126.691 1366.33 Z" fill="#000000" fill-rule="nonzero" fill-opacity="1" /><path clip-path="url(#clip610)" d="M146.853 1395.64 L151.737 1395.64 L151.737 1401.52 L146.853 1401.52 L146.853 1395.64 Z" fill="#000000" fill-rule="nonzero" fill-opacity="1" /><path clip-path="url(#clip610)" d="M171.922 1370.04 Q168.311 1370.04 166.482 1373.6 Q164.677 1377.14 164.677 1384.27 Q164.677 1391.38 166.482 1394.94 Q168.311 1398.49 171.922 1398.49 Q175.556 1398.49 177.362 1394.94 Q179.19 1391.38 179.19 1384.27 Q179.19 1377.14 177.362 1373.6 Q175.556 1370.04 171.922 1370.04 M171.922 1366.33 Q177.732 1366.33 180.788 1370.94 Q183.866 1375.52 183.866 1384.27 Q183.866 1393 180.788 1397.61 Q177.732 1402.19 171.922 1402.19 Q166.112 1402.19 163.033 1397.61 Q159.978 1393 159.978 1384.27 Q159.978 1375.52 163.033 1370.94 Q166.112 1366.33 171.922 1366.33 Z" fill="#000000" fill-rule="nonzero" fill-opacity="1" /><path clip-path="url(#clip610)" d="M127.917 1077.1 Q124.306 1077.1 122.478 1080.66 Q120.672 1084.2 120.672 1091.33 Q120.672 1098.44 122.478 1102.01 Q124.306 1105.55 127.917 1105.55 Q131.552 1105.55 133.357 1102.01 Q135.186 1098.44 135.186 1091.33 Q135.186 1084.2 133.357 1080.66 Q131.552 1077.1 127.917 1077.1 M127.917 1073.39 Q133.728 1073.39 136.783 1078 Q139.862 1082.58 139.862 1091.33 Q139.862 1100.06 136.783 1104.67 Q133.728 1109.25 127.917 1109.25 Q122.107 1109.25 119.029 1104.67 Q115.973 1100.06 115.973 1091.33 Q115.973 1082.58 119.029 1078 Q122.107 1073.39 127.917 1073.39 Z" fill="#000000" fill-rule="nonzero" fill-opacity="1" /><path clip-path="url(#clip610)" d="M148.079 1102.7 L152.964 1102.7 L152.964 1108.58 L148.079 1108.58 L148.079 1102.7 Z" fill="#000000" fill-rule="nonzero" fill-opacity="1" /><path clip-path="url(#clip610)" d="M163.959 1104.64 L171.598 1104.64 L171.598 1078.28 L163.288 1079.95 L163.288 1075.69 L171.552 1074.02 L176.227 1074.02 L176.227 1104.64 L183.866 1104.64 L183.866 1108.58 L163.959 1108.58 L163.959 1104.64 Z" fill="#000000" fill-rule="nonzero" fill-opacity="1" /><path clip-path="url(#clip610)" d="M128.288 784.159 Q124.677 784.159 122.848 787.724 Q121.043 791.265 121.043 798.395 Q121.043 805.501 122.848 809.066 Q124.677 812.608 128.288 812.608 Q131.922 812.608 133.728 809.066 Q135.556 805.501 135.556 798.395 Q135.556 791.265 133.728 787.724 Q131.922 784.159 128.288 784.159 M128.288 780.455 Q134.098 780.455 137.154 785.062 Q140.232 789.645 140.232 798.395 Q140.232 807.122 137.154 811.728 Q134.098 816.312 128.288 816.312 Q122.478 816.312 119.399 811.728 Q116.343 807.122 116.343 798.395 Q116.343 789.645 119.399 785.062 Q122.478 780.455 128.288 780.455 Z" fill="#000000" fill-rule="nonzero" fill-opacity="1" /><path clip-path="url(#clip610)" d="M148.45 809.761 L153.334 809.761 L153.334 815.64 L148.45 815.64 L148.45 809.761 Z" fill="#000000" fill-rule="nonzero" fill-opacity="1" /><path clip-path="url(#clip610)" d="M167.547 811.705 L183.866 811.705 L183.866 815.64 L161.922 815.64 L161.922 811.705 Q164.584 808.951 169.167 804.321 Q173.774 799.668 174.954 798.326 Q177.2 795.802 178.079 794.066 Q178.982 792.307 178.982 790.617 Q178.982 787.863 177.038 786.127 Q175.116 784.39 172.014 784.39 Q169.815 784.39 167.362 785.154 Q164.931 785.918 162.153 787.469 L162.153 782.747 Q164.977 781.613 167.431 781.034 Q169.885 780.455 171.922 780.455 Q177.292 780.455 180.487 783.14 Q183.681 785.826 183.681 790.316 Q183.681 792.446 182.871 794.367 Q182.084 796.265 179.977 798.858 Q179.399 799.529 176.297 802.747 Q173.195 805.941 167.547 811.705 Z" fill="#000000" fill-rule="nonzero" fill-opacity="1" /><path clip-path="url(#clip610)" d="M127.339 491.22 Q123.728 491.22 121.899 494.785 Q120.093 498.326 120.093 505.456 Q120.093 512.562 121.899 516.127 Q123.728 519.669 127.339 519.669 Q130.973 519.669 132.779 516.127 Q134.607 512.562 134.607 505.456 Q134.607 498.326 132.779 494.785 Q130.973 491.22 127.339 491.22 M127.339 487.516 Q133.149 487.516 136.204 492.123 Q139.283 496.706 139.283 505.456 Q139.283 514.183 136.204 518.789 Q133.149 523.373 127.339 523.373 Q121.529 523.373 118.45 518.789 Q115.394 514.183 115.394 505.456 Q115.394 496.706 118.45 492.123 Q121.529 487.516 127.339 487.516 Z" fill="#000000" fill-rule="nonzero" fill-opacity="1" /><path clip-path="url(#clip610)" d="M147.501 516.822 L152.385 516.822 L152.385 522.701 L147.501 522.701 L147.501 516.822 Z" fill="#000000" fill-rule="nonzero" fill-opacity="1" /><path clip-path="url(#clip610)" d="M176.737 504.067 Q180.093 504.785 181.968 507.053 Q183.866 509.322 183.866 512.655 Q183.866 517.771 180.348 520.572 Q176.829 523.373 170.348 523.373 Q168.172 523.373 165.857 522.933 Q163.565 522.516 161.112 521.66 L161.112 517.146 Q163.056 518.28 165.371 518.859 Q167.686 519.437 170.209 519.437 Q174.607 519.437 176.899 517.701 Q179.214 515.965 179.214 512.655 Q179.214 509.6 177.061 507.887 Q174.931 506.15 171.112 506.15 L167.084 506.15 L167.084 502.308 L171.297 502.308 Q174.746 502.308 176.575 500.942 Q178.403 499.553 178.403 496.961 Q178.403 494.299 176.505 492.887 Q174.63 491.451 171.112 491.451 Q169.19 491.451 166.991 491.868 Q164.792 492.285 162.153 493.164 L162.153 488.998 Q164.815 488.257 167.13 487.887 Q169.468 487.516 171.528 487.516 Q176.852 487.516 179.954 489.947 Q183.056 492.354 183.056 496.475 Q183.056 499.345 181.413 501.336 Q179.769 503.303 176.737 504.067 Z" fill="#000000" fill-rule="nonzero" fill-opacity="1" /><path clip-path="url(#clip610)" d="M126.205 198.281 Q122.593 198.281 120.765 201.846 Q118.959 205.387 118.959 212.517 Q118.959 219.623 120.765 223.188 Q122.593 226.73 126.205 226.73 Q129.839 226.73 131.644 223.188 Q133.473 219.623 133.473 212.517 Q133.473 205.387 131.644 201.846 Q129.839 198.281 126.205 198.281 M126.205 194.577 Q132.015 194.577 135.07 199.184 Q138.149 203.767 138.149 212.517 Q138.149 221.244 135.07 225.85 Q132.015 230.434 126.205 230.434 Q120.394 230.434 117.316 225.85 Q114.26 221.244 114.26 212.517 Q114.26 203.767 117.316 199.184 Q120.394 194.577 126.205 194.577 Z" fill="#000000" fill-rule="nonzero" fill-opacity="1" /><path clip-path="url(#clip610)" d="M146.366 223.883 L151.251 223.883 L151.251 229.762 L146.366 229.762 L146.366 223.883 Z" fill="#000000" fill-rule="nonzero" fill-opacity="1" /><path clip-path="url(#clip610)" d="M174.283 199.276 L162.477 217.725 L174.283 217.725 L174.283 199.276 M173.056 195.202 L178.936 195.202 L178.936 217.725 L183.866 217.725 L183.866 221.614 L178.936 221.614 L178.936 229.762 L174.283 229.762 L174.283 221.614 L158.681 221.614 L158.681 217.1 L173.056 195.202 Z" fill="#000000" fill-rule="nonzero" fill-opacity="1" /><path clip-path="url(#clip610)" d="M21.7677 848.522 L58.7206 848.522 L58.7206 840.755 Q58.7206 830.92 54.2646 826.369 Q49.8086 821.786 40.1964 821.786 Q30.6479 821.786 26.2237 826.369 Q21.7677 830.92 21.7677 840.755 L21.7677 848.522 M16.4842 854.951 L16.4842 841.742 Q16.4842 827.928 22.2451 821.467 Q27.9743 815.006 40.1964 815.006 Q52.4822 815.006 58.2432 821.499 Q64.0042 827.992 64.0042 841.742 L64.0042 854.951 L16.4842 854.951 Z" fill="#000000" fill-rule="nonzero" fill-opacity="1" /><path clip-path="url(#clip610)" d="M44.7161 774.52 L47.5806 774.52 L47.5806 801.447 Q53.6281 801.065 56.8109 797.819 Q59.9619 794.54 59.9619 788.716 Q59.9619 785.342 59.1344 782.191 Q58.3069 779.008 56.6518 775.889 L62.1899 775.889 Q63.5267 779.04 64.227 782.35 Q64.9272 785.66 64.9272 789.066 Q64.9272 797.596 59.9619 802.593 Q54.9967 807.558 46.5303 807.558 Q37.7774 807.558 32.6531 802.848 Q27.4968 798.105 27.4968 790.084 Q27.4968 782.891 32.1438 778.722 Q36.7589 774.52 44.7161 774.52 M42.9973 780.377 Q38.1912 780.44 35.3266 783.082 Q32.4621 785.692 32.4621 790.021 Q32.4621 794.922 35.2312 797.882 Q38.0002 800.811 43.0292 801.256 L42.9973 780.377 Z" fill="#000000" fill-rule="nonzero" fill-opacity="1" /><path clip-path="url(#clip610)" d="M42.4881 735.276 L64.0042 735.276 L64.0042 741.132 L42.679 741.132 Q37.6183 741.132 35.1038 743.105 Q32.5894 745.079 32.5894 749.026 Q32.5894 753.768 35.6131 756.505 Q38.6368 759.243 43.8567 759.243 L64.0042 759.243 L64.0042 765.131 L28.3562 765.131 L28.3562 759.243 L33.8944 759.243 Q30.6797 757.142 29.0883 754.309 Q27.4968 751.445 27.4968 747.721 Q27.4968 741.578 31.3163 738.427 Q35.1038 735.276 42.4881 735.276 Z" fill="#000000" fill-rule="nonzero" fill-opacity="1" /><path clip-path="url(#clip610)" d="M29.4065 700.869 L34.9447 700.869 Q33.6716 703.352 33.035 706.025 Q32.3984 708.699 32.3984 711.563 Q32.3984 715.924 33.7352 718.12 Q35.072 720.284 37.7456 720.284 Q39.7826 720.284 40.9603 718.725 Q42.1061 717.165 43.1565 712.455 L43.6021 710.449 Q44.9389 704.211 47.3897 701.601 Q49.8086 698.959 54.1691 698.959 Q59.1344 698.959 62.0308 702.906 Q64.9272 706.821 64.9272 713.696 Q64.9272 716.56 64.3543 719.68 Q63.8132 722.767 62.6992 726.204 L56.6518 726.204 Q58.3387 722.958 59.198 719.807 Q60.0256 716.656 60.0256 713.569 Q60.0256 709.431 58.6251 707.203 Q57.1929 704.975 54.6147 704.975 Q52.2276 704.975 50.9545 706.598 Q49.6813 708.19 48.5037 713.632 L48.0262 715.669 Q46.8804 721.112 44.5251 723.531 Q42.138 725.95 38.0002 725.95 Q32.9713 725.95 30.2341 722.385 Q27.4968 718.82 27.4968 712.264 Q27.4968 709.017 27.9743 706.153 Q28.4517 703.288 29.4065 700.869 Z" fill="#000000" fill-rule="nonzero" fill-opacity="1" /><path clip-path="url(#clip610)" d="M28.3562 689.634 L28.3562 683.777 L64.0042 683.777 L64.0042 689.634 L28.3562 689.634 M14.479 689.634 L14.479 683.777 L21.895 683.777 L21.895 689.634 L14.479 689.634 Z" fill="#000000" fill-rule="nonzero" fill-opacity="1" /><path clip-path="url(#clip610)" d="M18.2347 665.73 L28.3562 665.73 L28.3562 653.667 L32.9077 653.667 L32.9077 665.73 L52.2594 665.73 Q56.6199 665.73 57.8613 664.553 Q59.1026 663.343 59.1026 659.683 L59.1026 653.667 L64.0042 653.667 L64.0042 659.683 Q64.0042 666.462 61.4897 669.04 Q58.9434 671.619 52.2594 671.619 L32.9077 671.619 L32.9077 675.915 L28.3562 675.915 L28.3562 671.619 L18.2347 671.619 L18.2347 665.73 Z" fill="#000000" fill-rule="nonzero" fill-opacity="1" /><path clip-path="url(#clip610)" d="M67.3143 631.133 Q73.68 633.615 75.6216 635.971 Q77.5631 638.326 77.5631 642.273 L77.5631 646.951 L72.6615 646.951 L72.6615 643.514 Q72.6615 641.095 71.5157 639.758 Q70.3699 638.421 66.1048 636.798 L63.4312 635.748 L28.3562 650.166 L28.3562 643.96 L56.238 632.82 L28.3562 621.68 L28.3562 615.473 L67.3143 631.133 Z" fill="#000000" fill-rule="nonzero" fill-opacity="1" /><polyline clip-path="url(#clip612)" style="stroke:#6495ed; stroke-linecap:round; stroke-linejoin:round; stroke-width:8; stroke-opacity:1; fill:none" points="280.231,1384.23 286.961,1384.23 293.69,1384.22 300.42,1384.22 307.15,1384.22 313.879,1384.22 320.609,1384.21 327.338,1384.21 334.068,1384.21 340.798,1384.2 347.527,1384.2 354.257,1384.19 360.987,1384.18 367.716,1384.17 374.446,1384.17 381.176,1384.15 387.905,1384.14 394.635,1384.13 401.364,1384.11 408.094,1384.1 414.824,1384.08 421.553,1384.05 428.283,1384.03 435.013,1384 441.742,1383.97 448.472,1383.93 455.202,1383.89 461.931,1383.85 468.661,1383.8 475.39,1383.74 482.12,1383.68 488.85,1383.61 495.579,1383.53 502.309,1383.44 509.039,1383.34 515.768,1383.23 522.498,1383.11 529.227,1382.98 535.957,1382.82 542.687,1382.66 549.416,1382.47 556.146,1382.27 562.876,1382.04 569.605,1381.79 576.335,1381.51 583.065,1381.21 589.794,1380.87 596.524,1380.51 603.253,1380.1 609.983,1379.65 616.713,1379.16 623.442,1378.63 630.172,1378.04 636.902,1377.4 643.631,1376.7 650.361,1375.93 657.09,1375.1 663.82,1374.19 670.55,1373.2 677.279,1372.13 684.009,1370.96 690.739,1369.7 697.468,1368.32 704.198,1366.84 710.928,1365.23 717.657,1363.5 724.387,1361.63 731.116,1359.61 737.846,1357.44 744.576,1355.11 751.305,1352.6 758.035,1349.9 764.765,1347.01 771.494,1343.92 778.224,1340.61 784.953,1337.07 791.683,1333.3 798.413,1329.27 805.142,1324.98 811.872,1320.42 818.602,1315.56 825.331,1310.41 832.061,1304.95 838.791,1299.16 845.52,1293.03 852.25,1286.55 858.979,1279.71 865.709,1272.5 872.439,1264.9 879.168,1256.9 885.898,1248.5 892.628,1239.67 899.357,1230.41 906.087,1220.72 912.816,1210.58 919.546,1199.97 926.276,1188.91 933.005,1177.37 939.735,1165.36 946.465,1152.87 953.194,1139.89 959.924,1126.42 966.654,1112.47 973.383,1098.03 980.113,1083.11 986.842,1067.7 993.572,1051.82 1000.3,1035.46 1007.03,1018.64 1013.76,1001.37 1020.49,983.662 1027.22,965.523 1033.95,946.972 1040.68,928.026 1047.41,908.704 1054.14,889.027 1060.87,869.019 1067.6,848.702 1074.33,828.106 1081.06,807.256 1087.79,786.185 1094.52,764.924 1101.25,743.507 1107.98,721.969 1114.71,700.346 1121.44,678.678 1128.16,657.005 1134.89,635.366 1141.62,613.804 1148.35,592.362 1155.08,571.084 1161.81,550.016 1168.54,529.201 1175.27,508.687 1182,488.518 1188.73,468.742 1195.46,449.404 1202.19,430.55 1208.92,412.225 1215.65,394.474 1222.38,377.341 1229.11,360.869 1235.84,345.101 1242.57,330.075 1249.3,315.833 1256.03,302.41 1262.76,289.842 1269.49,278.164 1276.22,267.406 1282.95,257.598 1289.68,248.766 1296.41,240.935 1303.14,234.126 1309.86,228.358 1316.59,223.647 1323.32,220.007 1330.05,217.447 1336.78,215.974 1343.51,215.593 1350.24,216.305 1356.97,218.108 1363.7,220.997 1370.43,224.963 1377.16,229.996 1383.89,236.081 1390.62,243.202 1397.35,251.339 1404.08,260.47 1410.81,270.569 1417.54,281.609 1424.27,293.56 1431,306.39 1437.73,320.066 1444.46,334.55 1451.19,349.805 1457.92,365.791 1464.65,382.468 1471.38,399.792 1478.11,417.722 1484.84,436.212 1491.56,455.218 1498.29,474.694 1505.02,494.594 1511.75,514.872 1518.48,535.482 1525.21,556.378 1531.94,577.515 1538.67,598.847 1545.4,620.33 1552.13,641.92 1558.86,663.574 1565.59,685.25 1572.32,706.908 1579.05,728.509 1585.78,750.015 1592.51,771.388 1599.24,792.595 1605.97,813.602 1612.7,834.378 1619.43,854.893 1626.16,875.118 1632.89,895.029 1639.62,914.601 1646.35,933.811 1653.08,952.639 1659.81,971.067 1666.54,989.077 1673.26,1006.66 1679.99,1023.79 1686.72,1040.47 1693.45,1056.68 1700.18,1072.42 1706.91,1087.68 1713.64,1102.46 1720.37,1116.75 1727.1,1130.56 1733.83,1143.88 1740.56,1156.71 1747.29,1169.05 1754.02,1180.92 1760.75,1192.31 1767.48,1203.24 1774.21,1213.7 1780.94,1223.71 1787.67,1233.27 1794.4,1242.39 1801.13,1251.09 1807.86,1259.37 1814.59,1267.25 1821.32,1274.73 1828.05,1281.83 1834.78,1288.55 1841.51,1294.92 1848.24,1300.95 1854.97,1306.64 1861.69,1312.01 1868.42,1317.07 1875.15,1321.83 1881.88,1326.31 1888.61,1330.52 1895.34,1334.47 1902.07,1338.17 1908.8,1341.64 1915.53,1344.88 1922.26,1347.91 1928.99,1350.74 1935.72,1353.38 1942.45,1355.83 1949.18,1358.12 1955.91,1360.24 1962.64,1362.21 1969.37,1364.04 1976.1,1365.73 1982.83,1367.3 1989.56,1368.75 1996.29,1370.09 2003.02,1371.33 2009.75,1372.46 2016.48,1373.51 2023.21,1374.48 2029.94,1375.36 2036.67,1376.17 2043.39,1376.92 2050.12,1377.6 2056.85,1378.23 2063.58,1378.8 2070.31,1379.32 2077.04,1379.79 2083.77,1380.23 2090.5,1380.62 2097.23,1380.98 2103.96,1381.31 2110.69,1381.6 2117.42,1381.87 2124.15,1382.11 2130.88,1382.33 2137.61,1382.53 2144.34,1382.71 2151.07,1382.87 2157.8,1383.02 2164.53,1383.15 2171.26,1383.27 2177.99,1383.37 2184.72,1383.47 2191.45,1383.55 2198.18,1383.63 2204.91,1383.7 2211.64,1383.76 2218.37,1383.81 2225.09,1383.86 2231.82,1383.91 2238.55,1383.95 2245.28,1383.98 2252.01,1384.01 2258.74,1384.04 2265.47,1384.06 2272.2,1384.08 2278.93,1384.1 2285.66,1384.12 2292.39,1384.13 "/>
<polyline clip-path="url(#clip612)" style="stroke:#b22222; stroke-linecap:round; stroke-linejoin:round; stroke-width:8; stroke-opacity:1; fill:none" points="280.231,1384.24 286.961,1384.24 293.69,1384.24 300.42,1384.24 307.15,1384.24 313.879,1384.24 320.609,1384.24 327.338,1384.24 334.068,1384.24 340.798,1384.24 347.527,1384.24 354.257,1384.23 360.987,1384.24 367.716,1384.23 374.446,1384.23 381.176,1384.23 387.905,1384.23 394.635,1384.23 401.364,1384.23 408.094,1384.23 414.824,1384.23 421.553,1384.22 428.283,1384.21 435.013,1383.9 441.742,1383.38 448.472,1375.7 455.202,1383.85 461.931,1384.16 468.661,1384.2 475.39,1384.22 482.12,1384.21 488.85,1384.22 495.579,1384.22 502.309,1384.17 509.039,1384.14 515.768,1374.12 522.498,1375.48 529.227,1380.93 535.957,1379.98 542.687,1383.96 549.416,1384.05 556.146,1379.45 562.876,1376.54 569.605,1369.98 576.335,1376.96 583.065,1377.34 589.794,1374.9 596.524,1377.55 603.253,1379.36 609.983,1379.72 616.713,1381.68 623.442,1379.82 630.172,1373.84 636.902,1376.61 643.631,1383.87 650.361,1381.15 657.09,1381.23 663.82,1377.68 670.55,1376.48 677.279,1360.26 684.009,1360.93 690.739,1370.56 697.468,1372.18 704.198,1377.08 710.928,1376.75 717.657,1362.35 724.387,1373.66 731.116,1345.74 737.846,1321.15 744.576,1358.09 751.305,1330.14 758.035,1354.72 764.765,1352.64 771.494,1323.04 778.224,1331.7 784.953,1340.02 791.683,1355.19 798.413,1353.26 805.142,1321.21 811.872,1322.25 818.602,1317.89 825.331,1308.98 832.061,1329.24 838.791,1312.4 845.52,1289.85 852.25,1258.16 858.979,1292.39 865.709,1270.53 872.439,1304.71 879.168,1268.32 885.898,1224.77 892.628,1243.47 899.357,1217.22 906.087,1223.84 912.816,1208.34 919.546,1212.89 926.276,1213.25 933.005,1126.24 939.735,1139 946.465,1206.71 953.194,1136.07 959.924,1128.06 966.654,1171.59 973.383,1097.42 980.113,1058.49 986.842,998.842 993.572,1043.37 1000.3,953.284 1007.03,987.354 1013.76,1051.21 1020.49,923.388 1027.22,912.356 1033.95,946.786 1040.68,916.311 1047.41,880.024 1054.14,789.892 1060.87,775.65 1067.6,842.134 1074.33,826.796 1081.06,778.149 1087.79,678.157 1094.52,600.958 1101.25,757.789 1107.98,721.597 1114.71,775.14 1121.44,646.027 1128.16,626.561 1134.89,539.783 1141.62,436.458 1148.35,535.432 1155.08,557.354 1161.81,651.196 1168.54,524.507 1175.27,410.917 1182,489.191 1188.73,495.192 1195.46,622.191 1202.19,366.662 1208.92,516.104 1215.65,312.201 1222.38,421.495 1229.11,351.38 1235.84,453.157 1242.57,318.235 1249.3,304.701 1256.03,376.994 1262.76,414.927 1269.49,463.808 1276.22,409.278 1282.95,340.915 1289.68,86.1857 1296.41,144.881 1303.14,217.18 1309.86,342.115 1316.59,268.84 1323.32,376.587 1330.05,212.696 1336.78,327.134 1343.51,256.758 1350.24,270.791 1356.97,290.188 1363.7,209.549 1370.43,334.367 1377.16,140.389 1383.89,180.279 1390.62,236.499 1397.35,111.854 1404.08,378.811 1410.81,419.926 1417.54,403.401 1424.27,263.067 1431,181.788 1437.73,179.266 1444.46,271.18 1451.19,268.008 1457.92,468.25 1464.65,544.3 1471.38,486.745 1478.11,470.272 1484.84,462.244 1491.56,481.014 1498.29,570.66 1505.02,517.123 1511.75,444.348 1518.48,500.009 1525.21,573.497 1531.94,622.685 1538.67,675.218 1545.4,656.191 1552.13,520.116 1558.86,535.223 1565.59,604.697 1572.32,686.964 1579.05,683.163 1585.78,823.987 1592.51,762.085 1599.24,767.16 1605.97,756.388 1612.7,800.865 1619.43,793.341 1626.16,887.961 1632.89,931.796 1639.62,858.457 1646.35,886.047 1653.08,921.106 1659.81,996.956 1666.54,1016.93 1673.26,1007.69 1679.99,1013.89 1686.72,1024.13 1693.45,1094.63 1700.18,1046.08 1706.91,1061.11 1713.64,1102.19 1720.37,1126.98 1727.1,1142.63 1733.83,1195.02 1740.56,1193.07 1747.29,1256.92 1754.02,1169.9 1760.75,1149.57 1767.48,1206.62 1774.21,1189.4 1780.94,1244.5 1787.67,1198.35 1794.4,1188.49 1801.13,1237.19 1807.86,1282.35 1814.59,1261.66 1821.32,1272.65 1828.05,1280.2 1834.78,1297.95 1841.51,1309.66 1848.24,1342.81 1854.97,1286.99 1861.69,1287.12 1868.42,1295.16 1875.15,1342.09 1881.88,1358.2 1888.61,1308.95 1895.34,1329.62 1902.07,1352.66 1908.8,1338.74 1915.53,1362.24 1922.26,1357.12 1928.99,1358.39 1935.72,1353.67 1942.45,1364.25 1949.18,1334.05 1955.91,1348.58 1962.64,1371.22 1969.37,1375.17 1976.1,1364.37 1982.83,1369.31 1989.56,1368.75 1996.29,1365.5 2003.02,1351.14 2009.75,1347.36 2016.48,1370.34 2023.21,1378.04 2029.94,1375.2 2036.67,1376.34 2043.39,1382.29 2050.12,1383.69 2056.85,1382.79 2063.58,1384.06 2070.31,1381.03 2077.04,1372.91 2083.77,1375.92 2090.5,1377.42 2097.23,1378.2 2103.96,1372.21 2110.69,1377.45 2117.42,1380.9 2124.15,1379.56 2130.88,1383.27 2137.61,1384.23 2144.34,1384.19 2151.07,1384.22 2157.8,1384.23 2164.53,1384.23 2171.26,1384.24 2177.99,1384.24 2184.72,1384.24 2191.45,1384.24 2198.18,1384.24 2204.91,1384.24 2211.64,1384.24 2218.37,1384.24 2225.09,1384.24 2231.82,1384.24 2238.55,1384.24 2245.28,1384.24 2252.01,1384.24 2258.74,1384.24 2265.47,1384.24 2272.2,1384.24 2278.93,1384.24 2285.66,1384.24 2292.39,1384.24 "/>
<path clip-path="url(#clip610)" d="M1639.65 248.629 L2281.66 248.629 L2281.66 93.1086 L1639.65 93.1086  Z" fill="#ffffff" fill-rule="evenodd" fill-opacity="1"/>
<polyline clip-path="url(#clip610)" style="stroke:#000000; stroke-linecap:round; stroke-linejoin:round; stroke-width:4; stroke-opacity:1; fill:none" points="1639.65,248.629 2281.66,248.629 2281.66,93.1086 1639.65,93.1086 1639.65,248.629 "/>
<polyline clip-path="url(#clip610)" style="stroke:#6495ed; stroke-linecap:round; stroke-linejoin:round; stroke-width:8; stroke-opacity:1; fill:none" points="1663.34,144.949 1805.54,144.949 "/>
<path clip-path="url(#clip610)" d="M1829.24 127.669 L1858.47 127.669 L1858.47 131.604 L1846.2 131.604 L1846.2 162.229 L1841.5 162.229 L1841.5 131.604 L1829.24 131.604 L1829.24 127.669 Z" fill="#000000" fill-rule="nonzero" fill-opacity="1" /><path clip-path="url(#clip610)" d="M1870.86 140.284 Q1870.14 139.868 1869.28 139.682 Q1868.45 139.474 1867.43 139.474 Q1863.82 139.474 1861.87 141.835 Q1859.95 144.173 1859.95 148.571 L1859.95 162.229 L1855.67 162.229 L1855.67 136.303 L1859.95 136.303 L1859.95 140.331 Q1861.3 137.969 1863.45 136.835 Q1865.6 135.678 1868.68 135.678 Q1869.12 135.678 1869.65 135.747 Q1870.19 135.794 1870.83 135.909 L1870.86 140.284 Z" fill="#000000" fill-rule="nonzero" fill-opacity="1" /><path clip-path="url(#clip610)" d="M1874.88 151.997 L1874.88 136.303 L1879.14 136.303 L1879.14 151.835 Q1879.14 155.516 1880.58 157.368 Q1882.01 159.196 1884.88 159.196 Q1888.33 159.196 1890.32 156.997 Q1892.34 154.798 1892.34 151.002 L1892.34 136.303 L1896.6 136.303 L1896.6 162.229 L1892.34 162.229 L1892.34 158.247 Q1890.79 160.608 1888.73 161.766 Q1886.69 162.9 1883.98 162.9 Q1879.51 162.9 1877.2 160.122 Q1874.88 157.344 1874.88 151.997 M1885.6 135.678 L1885.6 135.678 Z" fill="#000000" fill-rule="nonzero" fill-opacity="1" /><path clip-path="url(#clip610)" d="M1927.55 148.201 L1927.55 150.284 L1907.96 150.284 Q1908.24 154.682 1910.6 156.997 Q1912.99 159.289 1917.22 159.289 Q1919.68 159.289 1921.97 158.687 Q1924.28 158.085 1926.55 156.881 L1926.55 160.909 Q1924.26 161.881 1921.85 162.391 Q1919.44 162.9 1916.97 162.9 Q1910.76 162.9 1907.13 159.289 Q1903.52 155.678 1903.52 149.52 Q1903.52 143.155 1906.94 139.428 Q1910.39 135.678 1916.23 135.678 Q1921.46 135.678 1924.49 139.057 Q1927.55 142.414 1927.55 148.201 M1923.29 146.951 Q1923.24 143.456 1921.32 141.372 Q1919.42 139.289 1916.27 139.289 Q1912.71 139.289 1910.56 141.303 Q1908.43 143.317 1908.1 146.974 L1923.29 146.951 Z" fill="#000000" fill-rule="nonzero" fill-opacity="1" /><path clip-path="url(#clip610)" d="M1954.47 131.511 L1954.47 158.386 L1960.12 158.386 Q1967.27 158.386 1970.58 155.145 Q1973.91 151.905 1973.91 144.914 Q1973.91 137.969 1970.58 134.752 Q1967.27 131.511 1960.12 131.511 L1954.47 131.511 M1949.79 127.669 L1959.4 127.669 Q1969.44 127.669 1974.14 131.858 Q1978.84 136.025 1978.84 144.914 Q1978.84 153.849 1974.12 158.039 Q1969.4 162.229 1959.4 162.229 L1949.79 162.229 L1949.79 127.669 Z" fill="#000000" fill-rule="nonzero" fill-opacity="1" /><path clip-path="url(#clip610)" d="M2008.29 148.201 L2008.29 150.284 L1988.7 150.284 Q1988.98 154.682 1991.34 156.997 Q1993.73 159.289 1997.96 159.289 Q2000.42 159.289 2002.71 158.687 Q2005.02 158.085 2007.29 156.881 L2007.29 160.909 Q2005 161.881 2002.59 162.391 Q2000.18 162.9 1997.71 162.9 Q1991.5 162.9 1987.87 159.289 Q1984.26 155.678 1984.26 149.52 Q1984.26 143.155 1987.68 139.428 Q1991.13 135.678 1996.97 135.678 Q2002.2 135.678 2005.23 139.057 Q2008.29 142.414 2008.29 148.201 M2004.03 146.951 Q2003.98 143.456 2002.06 141.372 Q2000.16 139.289 1997.01 139.289 Q1993.45 139.289 1991.3 141.303 Q1989.17 143.317 1988.84 146.974 L2004.03 146.951 Z" fill="#000000" fill-rule="nonzero" fill-opacity="1" /><path clip-path="url(#clip610)" d="M2036.83 146.581 L2036.83 162.229 L2032.57 162.229 L2032.57 146.719 Q2032.57 143.039 2031.13 141.21 Q2029.7 139.382 2026.83 139.382 Q2023.38 139.382 2021.39 141.581 Q2019.4 143.78 2019.4 147.576 L2019.4 162.229 L2015.11 162.229 L2015.11 136.303 L2019.4 136.303 L2019.4 140.331 Q2020.93 137.993 2022.99 136.835 Q2025.07 135.678 2027.78 135.678 Q2032.24 135.678 2034.54 138.456 Q2036.83 141.21 2036.83 146.581 Z" fill="#000000" fill-rule="nonzero" fill-opacity="1" /><path clip-path="url(#clip610)" d="M2061.85 137.067 L2061.85 141.094 Q2060.05 140.169 2058.1 139.706 Q2056.16 139.243 2054.07 139.243 Q2050.9 139.243 2049.3 140.215 Q2047.73 141.187 2047.73 143.131 Q2047.73 144.613 2048.86 145.469 Q2050 146.303 2053.42 147.067 L2054.88 147.391 Q2059.42 148.363 2061.32 150.145 Q2063.24 151.905 2063.24 155.076 Q2063.24 158.687 2060.37 160.793 Q2057.52 162.9 2052.52 162.9 Q2050.44 162.9 2048.17 162.483 Q2045.92 162.09 2043.42 161.28 L2043.42 156.881 Q2045.79 158.108 2048.08 158.733 Q2050.37 159.335 2052.61 159.335 Q2055.62 159.335 2057.24 158.317 Q2058.86 157.275 2058.86 155.4 Q2058.86 153.664 2057.68 152.738 Q2056.53 151.812 2052.57 150.956 L2051.09 150.608 Q2047.13 149.775 2045.37 148.062 Q2043.61 146.326 2043.61 143.317 Q2043.61 139.659 2046.2 137.669 Q2048.8 135.678 2053.56 135.678 Q2055.92 135.678 2058.01 136.025 Q2060.09 136.372 2061.85 137.067 Z" fill="#000000" fill-rule="nonzero" fill-opacity="1" /><path clip-path="url(#clip610)" d="M2070.02 136.303 L2074.28 136.303 L2074.28 162.229 L2070.02 162.229 L2070.02 136.303 M2070.02 126.21 L2074.28 126.21 L2074.28 131.604 L2070.02 131.604 L2070.02 126.21 Z" fill="#000000" fill-rule="nonzero" fill-opacity="1" /><path clip-path="url(#clip610)" d="M2087.41 128.942 L2087.41 136.303 L2096.18 136.303 L2096.18 139.613 L2087.41 139.613 L2087.41 153.687 Q2087.41 156.858 2088.26 157.761 Q2089.14 158.664 2091.8 158.664 L2096.18 158.664 L2096.18 162.229 L2091.8 162.229 Q2086.87 162.229 2085 160.4 Q2083.12 158.548 2083.12 153.687 L2083.12 139.613 L2080 139.613 L2080 136.303 L2083.12 136.303 L2083.12 128.942 L2087.41 128.942 Z" fill="#000000" fill-rule="nonzero" fill-opacity="1" /><path clip-path="url(#clip610)" d="M2112.57 164.636 Q2110.76 169.266 2109.05 170.678 Q2107.34 172.09 2104.47 172.09 L2101.06 172.09 L2101.06 168.525 L2103.56 168.525 Q2105.32 168.525 2106.29 167.692 Q2107.27 166.858 2108.45 163.756 L2109.21 161.812 L2098.73 136.303 L2103.24 136.303 L2111.34 156.581 L2119.44 136.303 L2123.96 136.303 L2112.57 164.636 Z" fill="#000000" fill-rule="nonzero" fill-opacity="1" /><polyline clip-path="url(#clip610)" style="stroke:#b22222; stroke-linecap:round; stroke-linejoin:round; stroke-width:8; stroke-opacity:1; fill:none" points="1663.34,196.789 1805.54,196.789 "/>
<path clip-path="url(#clip610)" d="M1829.24 179.509 L1851.09 179.509 L1851.09 183.444 L1833.91 183.444 L1833.91 193.675 L1850.37 193.675 L1850.37 197.61 L1833.91 197.61 L1833.91 210.133 L1851.5 210.133 L1851.5 214.069 L1829.24 214.069 L1829.24 179.509 Z" fill="#000000" fill-rule="nonzero" fill-opacity="1" /><path clip-path="url(#clip610)" d="M1875.53 188.907 L1875.53 192.934 Q1873.73 192.009 1871.78 191.546 Q1869.84 191.083 1867.75 191.083 Q1864.58 191.083 1862.99 192.055 Q1861.41 193.027 1861.41 194.971 Q1861.41 196.453 1862.55 197.309 Q1863.68 198.143 1867.11 198.907 L1868.56 199.231 Q1873.1 200.203 1875 201.985 Q1876.92 203.745 1876.92 206.916 Q1876.92 210.527 1874.05 212.633 Q1871.2 214.74 1866.2 214.74 Q1864.12 214.74 1861.85 214.323 Q1859.61 213.93 1857.11 213.12 L1857.11 208.721 Q1859.47 209.948 1861.76 210.573 Q1864.05 211.175 1866.3 211.175 Q1869.31 211.175 1870.93 210.157 Q1872.55 209.115 1872.55 207.24 Q1872.55 205.504 1871.37 204.578 Q1870.21 203.652 1866.25 202.796 L1864.77 202.448 Q1860.81 201.615 1859.05 199.902 Q1857.29 198.166 1857.29 195.157 Q1857.29 191.499 1859.88 189.509 Q1862.48 187.518 1867.25 187.518 Q1869.61 187.518 1871.69 187.865 Q1873.77 188.212 1875.53 188.907 Z" fill="#000000" fill-rule="nonzero" fill-opacity="1" /><path clip-path="url(#clip610)" d="M1887.92 180.782 L1887.92 188.143 L1896.69 188.143 L1896.69 191.453 L1887.92 191.453 L1887.92 205.527 Q1887.92 208.698 1888.77 209.601 Q1889.65 210.504 1892.31 210.504 L1896.69 210.504 L1896.69 214.069 L1892.31 214.069 Q1887.38 214.069 1885.51 212.24 Q1883.63 210.388 1883.63 205.527 L1883.63 191.453 L1880.51 191.453 L1880.51 188.143 L1883.63 188.143 L1883.63 180.782 L1887.92 180.782 Z" fill="#000000" fill-rule="nonzero" fill-opacity="1" /><path clip-path="url(#clip610)" d="M1902.29 188.143 L1906.55 188.143 L1906.55 214.069 L1902.29 214.069 L1902.29 188.143 M1902.29 178.05 L1906.55 178.05 L1906.55 183.444 L1902.29 183.444 L1902.29 178.05 Z" fill="#000000" fill-rule="nonzero" fill-opacity="1" /><path clip-path="url(#clip610)" d="M1935.65 193.12 Q1937.24 190.249 1939.47 188.884 Q1941.69 187.518 1944.7 187.518 Q1948.75 187.518 1950.95 190.365 Q1953.15 193.189 1953.15 198.421 L1953.15 214.069 L1948.87 214.069 L1948.87 198.559 Q1948.87 194.833 1947.55 193.027 Q1946.23 191.222 1943.52 191.222 Q1940.21 191.222 1938.29 193.421 Q1936.37 195.62 1936.37 199.416 L1936.37 214.069 L1932.08 214.069 L1932.08 198.559 Q1932.08 194.809 1930.76 193.027 Q1929.44 191.222 1926.69 191.222 Q1923.43 191.222 1921.5 193.444 Q1919.58 195.643 1919.58 199.416 L1919.58 214.069 L1915.3 214.069 L1915.3 188.143 L1919.58 188.143 L1919.58 192.171 Q1921.04 189.786 1923.08 188.652 Q1925.12 187.518 1927.92 187.518 Q1930.74 187.518 1932.71 188.953 Q1934.7 190.388 1935.65 193.12 Z" fill="#000000" fill-rule="nonzero" fill-opacity="1" /><path clip-path="url(#clip610)" d="M1973.43 201.036 Q1968.26 201.036 1966.27 202.217 Q1964.28 203.397 1964.28 206.245 Q1964.28 208.513 1965.76 209.856 Q1967.27 211.175 1969.84 211.175 Q1973.38 211.175 1975.51 208.675 Q1977.66 206.152 1977.66 201.985 L1977.66 201.036 L1973.43 201.036 M1981.92 199.277 L1981.92 214.069 L1977.66 214.069 L1977.66 210.133 Q1976.2 212.495 1974.03 213.629 Q1971.85 214.74 1968.7 214.74 Q1964.72 214.74 1962.36 212.518 Q1960.02 210.272 1960.02 206.522 Q1960.02 202.147 1962.94 199.925 Q1965.88 197.703 1971.69 197.703 L1977.66 197.703 L1977.66 197.286 Q1977.66 194.347 1975.72 192.749 Q1973.8 191.129 1970.3 191.129 Q1968.08 191.129 1965.97 191.661 Q1963.87 192.194 1961.92 193.259 L1961.92 189.323 Q1964.26 188.421 1966.46 187.981 Q1968.66 187.518 1970.74 187.518 Q1976.37 187.518 1979.14 190.434 Q1981.92 193.351 1981.92 199.277 Z" fill="#000000" fill-rule="nonzero" fill-opacity="1" /><path clip-path="url(#clip610)" d="M1994.91 180.782 L1994.91 188.143 L2003.68 188.143 L2003.68 191.453 L1994.91 191.453 L1994.91 205.527 Q1994.91 208.698 1995.76 209.601 Q1996.64 210.504 1999.3 210.504 L2003.68 210.504 L2003.68 214.069 L1999.3 214.069 Q1994.37 214.069 1992.5 212.24 Q1990.62 210.388 1990.62 205.527 L1990.62 191.453 L1987.5 191.453 L1987.5 188.143 L1990.62 188.143 L1990.62 180.782 L1994.91 180.782 Z" fill="#000000" fill-rule="nonzero" fill-opacity="1" /><path clip-path="url(#clip610)" d="M2031.46 200.041 L2031.46 202.124 L2011.87 202.124 Q2012.15 206.522 2014.51 208.837 Q2016.9 211.129 2021.13 211.129 Q2023.59 211.129 2025.88 210.527 Q2028.19 209.925 2030.46 208.721 L2030.46 212.749 Q2028.17 213.721 2025.76 214.231 Q2023.36 214.74 2020.88 214.74 Q2014.68 214.74 2011.04 211.129 Q2007.43 207.518 2007.43 201.36 Q2007.43 194.995 2010.86 191.268 Q2014.3 187.518 2020.14 187.518 Q2025.37 187.518 2028.4 190.897 Q2031.46 194.254 2031.46 200.041 M2027.2 198.791 Q2027.15 195.296 2025.23 193.212 Q2023.33 191.129 2020.18 191.129 Q2016.62 191.129 2014.47 193.143 Q2012.34 195.157 2012.01 198.814 L2027.2 198.791 Z" fill="#000000" fill-rule="nonzero" fill-opacity="1" /><path clip-path="url(#clip610)" d="M2055.51 192.078 L2055.51 178.05 L2059.77 178.05 L2059.77 214.069 L2055.51 214.069 L2055.51 210.18 Q2054.17 212.495 2052.11 213.629 Q2050.07 214.74 2047.2 214.74 Q2042.5 214.74 2039.54 210.99 Q2036.6 207.24 2036.6 201.129 Q2036.6 195.018 2039.54 191.268 Q2042.5 187.518 2047.2 187.518 Q2050.07 187.518 2052.11 188.652 Q2054.17 189.763 2055.51 192.078 M2040.99 201.129 Q2040.99 205.828 2042.92 208.513 Q2044.86 211.175 2048.24 211.175 Q2051.62 211.175 2053.56 208.513 Q2055.51 205.828 2055.51 201.129 Q2055.51 196.43 2053.56 193.768 Q2051.62 191.083 2048.24 191.083 Q2044.86 191.083 2042.92 193.768 Q2040.99 196.43 2040.99 201.129 Z" fill="#000000" fill-rule="nonzero" fill-opacity="1" /><path clip-path="url(#clip610)" d="M2088.47 183.351 L2088.47 210.226 L2094.12 210.226 Q2101.27 210.226 2104.58 206.985 Q2107.92 203.745 2107.92 196.754 Q2107.92 189.809 2104.58 186.592 Q2101.27 183.351 2094.12 183.351 L2088.47 183.351 M2083.8 179.509 L2093.4 179.509 Q2103.45 179.509 2108.15 183.698 Q2112.85 187.865 2112.85 196.754 Q2112.85 205.689 2108.12 209.879 Q2103.4 214.069 2093.4 214.069 L2083.8 214.069 L2083.8 179.509 Z" fill="#000000" fill-rule="nonzero" fill-opacity="1" /><path clip-path="url(#clip610)" d="M2142.29 200.041 L2142.29 202.124 L2122.71 202.124 Q2122.98 206.522 2125.35 208.837 Q2127.73 211.129 2131.97 211.129 Q2134.42 211.129 2136.71 210.527 Q2139.03 209.925 2141.29 208.721 L2141.29 212.749 Q2139 213.721 2136.6 214.231 Q2134.19 214.74 2131.71 214.74 Q2125.51 214.74 2121.87 211.129 Q2118.26 207.518 2118.26 201.36 Q2118.26 194.995 2121.69 191.268 Q2125.14 187.518 2130.97 187.518 Q2136.2 187.518 2139.23 190.897 Q2142.29 194.254 2142.29 200.041 M2138.03 198.791 Q2137.98 195.296 2136.06 193.212 Q2134.17 191.129 2131.02 191.129 Q2127.45 191.129 2125.3 193.143 Q2123.17 195.157 2122.85 198.814 L2138.03 198.791 Z" fill="#000000" fill-rule="nonzero" fill-opacity="1" /><path clip-path="url(#clip610)" d="M2170.83 198.421 L2170.83 214.069 L2166.57 214.069 L2166.57 198.559 Q2166.57 194.879 2165.14 193.05 Q2163.7 191.222 2160.83 191.222 Q2157.38 191.222 2155.39 193.421 Q2153.4 195.62 2153.4 199.416 L2153.4 214.069 L2149.12 214.069 L2149.12 188.143 L2153.4 188.143 L2153.4 192.171 Q2154.93 189.833 2156.99 188.675 Q2159.07 187.518 2161.78 187.518 Q2166.25 187.518 2168.54 190.296 Q2170.83 193.05 2170.83 198.421 Z" fill="#000000" fill-rule="nonzero" fill-opacity="1" /><path clip-path="url(#clip610)" d="M2195.85 188.907 L2195.85 192.934 Q2194.05 192.009 2192.1 191.546 Q2190.16 191.083 2188.08 191.083 Q2184.91 191.083 2183.31 192.055 Q2181.73 193.027 2181.73 194.971 Q2181.73 196.453 2182.87 197.309 Q2184 198.143 2187.43 198.907 L2188.89 199.231 Q2193.42 200.203 2195.32 201.985 Q2197.24 203.745 2197.24 206.916 Q2197.24 210.527 2194.37 212.633 Q2191.53 214.74 2186.53 214.74 Q2184.44 214.74 2182.17 214.323 Q2179.93 213.93 2177.43 213.12 L2177.43 208.721 Q2179.79 209.948 2182.08 210.573 Q2184.37 211.175 2186.62 211.175 Q2189.63 211.175 2191.25 210.157 Q2192.87 209.115 2192.87 207.24 Q2192.87 205.504 2191.69 204.578 Q2190.53 203.652 2186.57 202.796 L2185.09 202.448 Q2181.13 201.615 2179.37 199.902 Q2177.61 198.166 2177.61 195.157 Q2177.61 191.499 2180.21 189.509 Q2182.8 187.518 2187.57 187.518 Q2189.93 187.518 2192.01 187.865 Q2194.1 188.212 2195.85 188.907 Z" fill="#000000" fill-rule="nonzero" fill-opacity="1" /><path clip-path="url(#clip610)" d="M2204.03 188.143 L2208.29 188.143 L2208.29 214.069 L2204.03 214.069 L2204.03 188.143 M2204.03 178.05 L2208.29 178.05 L2208.29 183.444 L2204.03 183.444 L2204.03 178.05 Z" fill="#000000" fill-rule="nonzero" fill-opacity="1" /><path clip-path="url(#clip610)" d="M2221.41 180.782 L2221.41 188.143 L2230.18 188.143 L2230.18 191.453 L2221.41 191.453 L2221.41 205.527 Q2221.41 208.698 2222.27 209.601 Q2223.15 210.504 2225.81 210.504 L2230.18 210.504 L2230.18 214.069 L2225.81 214.069 Q2220.88 214.069 2219 212.24 Q2217.13 210.388 2217.13 205.527 L2217.13 191.453 L2214 191.453 L2214 188.143 L2217.13 188.143 L2217.13 180.782 L2221.41 180.782 Z" fill="#000000" fill-rule="nonzero" fill-opacity="1" /><path clip-path="url(#clip610)" d="M2246.57 216.476 Q2244.77 221.106 2243.05 222.518 Q2241.34 223.93 2238.47 223.93 L2235.07 223.93 L2235.07 220.365 L2237.57 220.365 Q2239.33 220.365 2240.3 219.532 Q2241.27 218.698 2242.45 215.596 L2243.22 213.652 L2232.73 188.143 L2237.24 188.143 L2245.35 208.421 L2253.45 188.143 L2257.96 188.143 L2246.57 216.476 Z" fill="#000000" fill-rule="nonzero" fill-opacity="1" /></svg>
